<?xml version="1.0" encoding="UTF-8"?>
<svg width="44px" height="44px" viewBox="0 0 44 44" version="1.1" xmlns="http://www.w3.org/2000/svg" xmlns:xlink="http://www.w3.org/1999/xlink">
    <title>air temperature备份</title>
    <g id="air-temperature备份" stroke="none" stroke-width="1" fill="none" fill-rule="evenodd">
        <g id="Air-Temperature备份" transform="translate(15.500000, 7.300000)" fill="#597EF7" fill-rule="nonzero">
            <g id="Air-Temperature">
                <path d="M7.56797147,17.8601491 L7.56797147,10.1051669 C7.56797147,9.40869881 7.0033725,8.84409984 6.30690438,8.84409984 C5.61043625,8.84409984 5.04583728,9.40869881 5.04583728,10.1051669 L5.04583728,17.8601491 C3.59587682,18.3643877 2.52401686,19.7515929 2.52401686,21.4538295 C2.52401686,23.5341666 4.22625348,25.236717 6.30690438,25.236717 C8.38755527,25.236717 10.0897919,23.5332253 10.0897919,21.4538295 C10.0897919,19.8146619 9.01793193,18.4274567 7.56797147,17.8601491 Z M10.0897919,16.4105024 L10.0897919,3.800459 C10.0897919,1.72012188 8.38755527,0.0178852512 6.30690438,0.0178852512 C4.22625348,0.0178852512 2.52401686,1.72012188 2.52401686,3.800459 L2.52401686,16.4105024 C0.935606139,17.6005433 0.00108392554,19.469704 0.00219544219,21.4544571 C0.00219544219,24.9219994 2.83936207,27.759165 6.30690438,27.759165 C9.77444668,27.759165 12.6116133,24.9219994 12.6116133,21.4544571 C12.6127248,19.469704 11.6782026,17.6005433 10.0897919,16.4105024 Z M6.30690438,26.4974703 C3.53280778,26.4974703 1.26326353,24.2279261 1.26326353,21.4538295 C1.26326353,19.5623857 2.27174068,17.9862872 3.78508395,17.1036344 L3.78508395,3.79951767 C3.78508395,2.40675471 4.91414142,1.27769724 6.30690438,1.27769724 C7.69966734,1.27769724 8.8287248,2.40675471 8.8287248,3.79951767 L8.8287248,17.1036344 C10.3420681,17.9862872 11.3505452,19.6254548 11.3505452,21.4538295 C11.3505452,24.2279261 9.08100097,26.4974703 6.30690438,26.4974703 Z" id="形状"></path>
                <path d="M13.4628875,0.00188265802 C13.6023746,0.00353338116 13.7392418,0.0399881557 13.8610697,0.10793906 C13.9919515,0.177404079 14.1001877,0.282918035 14.1729634,0.411988331 C14.2466895,0.53614383 14.2860049,0.677700797 14.2868642,0.822094003 C14.2846654,0.966297411 14.245444,1.107516 14.1729634,1.23219968 C14.1012167,1.35760198 13.9976309,1.46183724 13.8726794,1.53436629 C13.7489062,1.60802853 13.6068834,1.64532854 13.4628875,1.64199157 C13.3182509,1.64255259 13.1760653,1.60465087 13.0508992,1.53216985 C12.9258175,1.46226462 12.8225347,1.35909039 12.7524979,1.23408233 C12.6100427,0.977513418 12.6115886,0.665251601 12.756577,0.410105673 C12.8267934,0.282094561 12.9332118,0.177640871 13.0625089,0.109821718 C13.1855437,0.04265882 13.3227657,0.00566479445 13.4628875,0.00188265802 L13.4628875,0.00188265802 Z M13.4588084,0.382493355 C13.3847022,0.386172777 13.3123481,0.406324754 13.2470094,0.441483306 C13.1779783,0.476602027 13.1207192,0.531134561 13.0822768,0.598371475 C13.0432565,0.665841243 13.0223917,0.742273549 13.021718,0.820211345 C13.0194818,0.897288649 13.0407096,0.973227292 13.0825906,1.03797212 C13.1186553,1.1054273 13.1739063,1.16067822 13.2413614,1.19674295 C13.307914,1.23394309 13.3828786,1.25349438 13.4591222,1.25353647 C13.5354373,1.25615601 13.6109349,1.23711843 13.676883,1.19862561 C13.7437821,1.16190643 13.7994264,1.10767227 13.8378502,1.04173744 C13.8761668,0.974867196 13.8963904,0.899163886 13.8965264,0.822094003 C13.8987028,0.743696686 13.8790394,0.666238094 13.8397329,0.598371475 C13.7986459,0.531134623 13.7402301,0.476186957 13.6706075,0.439286872 C13.6058162,0.403069115 13.5330278,0.383551018 13.4588084,0.382493355 L13.4588084,0.382493355 Z M18.8777258,4.58113452 C18.9803589,4.56688365 19.0846198,4.59138273 19.1701653,4.64985154 C19.2576043,4.70863231 19.3099004,4.80475246 19.3270535,4.93821199 C19.3442066,5.07167153 19.2951529,5.23901891 19.1798924,5.44025413 C19.0288871,5.71307523 18.8354907,5.9601693 18.6069368,6.17229433 C18.3946514,6.36678513 18.1421522,6.51215699 17.867366,6.59808882 C17.6064101,6.6817369 17.334898,6.72790451 17.0609608,6.73520908 C16.6817098,6.74587747 16.3625992,6.70079827 16.1036292,6.59997147 C15.8678735,6.51232108 15.6468454,6.38926903 15.4481504,6.23504959 C15.2653832,6.08724643 15.1025373,5.91638483 14.9636797,5.72673193 C14.8182967,5.53072631 14.6972836,5.27635829 14.6006405,4.96362788 C14.5039974,4.65089746 14.4581861,4.28921794 14.4632065,3.8785893 C14.463181,3.608801 14.4895594,3.33965778 14.5419643,3.0750081 C14.5951386,2.80667526 14.6842152,2.54672771 14.8067916,2.30217699 C14.9413153,2.03863333 15.1219772,1.80132871 15.3402113,1.60151442 C15.5632068,1.38988332 15.8241243,1.22221906 16.1092771,1.10731669 C16.3873693,0.995359634 16.6829043,0.932918173 16.9825167,0.922816207 C17.2990124,0.915076391 17.5664545,0.95168363 17.7848428,1.03263793 C18.0286723,1.12689934 18.2615933,1.24725237 18.4795436,1.39159806 C18.7238708,1.5501597 18.8978075,1.70704787 19.0013536,1.86226256 C19.1048998,2.01747726 19.1571959,2.15156434 19.1582418,2.26452382 C19.1594199,2.37844707 19.1196708,2.48900948 19.0462237,2.57610373 C18.9702898,2.67023663 18.8499043,2.70286937 18.6850671,2.67400194 C18.5857046,2.65831313 18.4784977,2.59691756 18.3634464,2.48981524 L18.0691241,2.19925835 C17.9329024,2.08421734 17.7833011,1.98602827 17.6235618,1.9068188 C17.4394796,1.81143079 17.20603,1.77032609 16.923213,1.7835047 C16.5491916,1.80442312 16.2437826,1.9174872 16.0069861,2.12269692 C15.7701895,2.32790665 15.606712,2.53709087 15.5165536,2.75024959 C15.4251848,2.9682988 15.365078,3.19816243 15.3380149,3.4330269 C15.3095046,3.66406217 15.3016291,3.89717771 15.3144817,4.12961037 C15.3245986,4.41817415 15.3864529,4.70257615 15.4970995,4.96927585 C15.6027375,5.2152765 15.7865059,5.43303728 16.0484045,5.62255818 C16.3103032,5.81207909 16.6477173,5.90558444 17.060647,5.90307423 C17.3587345,5.90307423 17.5928117,5.85402053 17.7628784,5.75591313 C17.9147653,5.6728981 18.0515997,5.56491562 18.1676499,5.43648882 C18.2538847,5.33977693 18.3302006,5.23465858 18.3954515,5.12271248 L18.5288065,4.85976791 C18.5677379,4.78303997 18.6233879,4.71602415 18.6916564,4.6636577 C18.7463632,4.62196163 18.8100972,4.59369516 18.8777258,4.58113452 L18.8777258,4.58113452 Z" id="形状"></path>
            </g>
        </g>
    </g>
</svg>
