<?xml version="1.0" encoding="UTF-8"?>
<svg width="44px" height="44px" viewBox="0 0 44 44" version="1.1" xmlns="http://www.w3.org/2000/svg" xmlns:xlink="http://www.w3.org/1999/xlink">
    <title>Air Humidity</title>
    <g id="Air-Humidity" stroke="none" stroke-width="1" fill="none" fill-rule="evenodd">
        <g transform="translate(12.344828, 8.000000)" fill="#597EF7" fill-rule="nonzero">
            <g>
                <circle id="椭圆形" cx="12.2134895" cy="19.3240078" r="1"></circle>
                <circle id="椭圆形" cx="6.82450661" cy="13.2740403" r="1"></circle>
                <path d="M17.9188462,12.8677944 L10.1576664,0.27720668 L10.1576664,0.280546519 C10.1082103,0.200528263 10.0399365,0.133818048 9.95879419,0.0862285838 C9.68438781,-0.0751926608 9.33136132,0.0109113602 9.16209065,0.280546519 L1.40060724,12.8677944 C-0.442973569,15.846908 -0.442973569,19.6124718 1.40060724,22.5915853 C4.1483843,27.048753 10.0735632,28.4854912 14.6351768,25.8005639 C19.1967903,23.1156365 20.6666233,17.3252657 17.9188462,12.8677944 Z M6.82450661,11.1429191 C7.68713396,11.1427963 8.46488403,11.6623522 8.79505396,12.4592924 C9.12522388,13.2562327 8.9427836,14.1735925 8.33281395,14.7835622 C7.7228443,15.3935318 6.80548448,15.5759721 6.00854423,15.2458022 C5.21160397,14.9156322 4.69204809,14.1378822 4.69217087,13.2752548 C4.69367637,12.0982225 5.64747427,11.1444246 6.82450661,11.1429191 Z M12.2134895,21.4563435 C11.035833,21.4563435 10.0811538,20.5016643 10.0811538,19.3240078 C10.0811538,18.1463513 11.035833,17.1916721 12.2134895,17.1916721 C13.391146,17.1916721 14.3458252,18.1463513 14.3458252,19.3240078 C14.3444866,20.5011094 13.3905911,21.455005 12.2134895,21.4563435 L12.2134895,21.4563435 Z M14.3889395,12.0583388 L6.03448276,21.1414877 C5.88760949,21.3011609 5.66670837,21.370349 5.45499073,21.3229896 C5.24327308,21.2756302 5.07290385,21.1189183 5.00805948,20.9118857 C4.9432151,20.7048532 4.99374698,20.4789531 5.14062026,20.31928 L13.495077,11.236131 C13.6419503,11.0764578 13.8628514,11.0072697 14.074569,11.0546291 C14.2862867,11.1019885 14.4566559,11.2587004 14.5215003,11.465733 C14.5863446,11.6727656 14.5358128,11.8986656 14.3889395,12.0583388 Z" id="形状"></path>
            </g>
        </g>
    </g>
</svg>
