<?xml version="1.0" encoding="UTF-8"?>
<svg width="44px" height="44px" viewBox="0 0 44 44" version="1.1" xmlns="http://www.w3.org/2000/svg" xmlns:xlink="http://www.w3.org/1999/xlink">
    <title>Light</title>
    <g id="Light" stroke="none" stroke-width="1" fill="none" fill-rule="evenodd">
        <g transform="translate(7.000000, 7.000000)" fill="#597EF7" fill-rule="nonzero">
            <g>
                <circle id="椭圆形" cx="14.7021048" cy="14.7185593" r="8.34671481"></circle>
                <line x1="0.687798524" y1="14.7307139" x2="2.91804283" y2="14.7307139" id="路径"></line>
                <path d="M2.91804283,15.3553489 L0.687798524,15.3553489 C0.324295523,15.3553489 0.0296181182,15.0606715 0.0296181182,14.6971685 C0.0296181182,14.3336655 0.324295523,14.038988 0.687798524,14.038988 L2.91804283,14.038988 C3.28154583,14.038988 3.57622323,14.3336655 3.57622323,14.6971685 C3.57622323,15.0606715 3.28154583,15.3553489 2.91804283,15.3553489 L2.91804283,15.3553489 Z" id="路径"></path>
                <line x1="26.5026213" y1="14.7307139" x2="28.7328656" y2="14.7307139" id="路径"></line>
                <path d="M28.7328656,15.3553489 L26.5026213,15.3553489 C26.1391183,15.3553489 25.8444409,15.0606715 25.8444409,14.6971685 C25.8444409,14.3336655 26.1391183,14.038988 26.5026213,14.038988 L28.7328656,14.038988 C29.0963686,14.038988 29.391046,14.3336655 29.391046,14.6971685 C29.391046,15.0606715 29.0963686,15.3553489 28.7328656,15.3553489 Z" id="路径"></path>
                <path d="M14.7103321,3.56305962 C14.3468291,3.56305962 14.0521517,3.26838222 14.0521517,2.90487922 L14.0521517,0.674634916 C14.0521517,0.311131915 14.3468291,0.0164545101 14.7103321,0.0164545101 C15.0738351,0.0164545101 15.3685125,0.311131915 15.3685125,0.674634916 L15.3685125,2.90487922 C15.3685125,3.07943952 15.2991687,3.24685028 15.1757359,3.37028305 C15.0523031,3.49371582 14.8848924,3.56305962 14.7103321,3.56305962 L14.7103321,3.56305962 Z" id="路径"></path>
                <path d="M14.7103321,29.3778824 C14.3468291,29.3778824 14.0521517,29.083205 14.0521517,28.719702 L14.0521517,26.4894577 C14.0521517,26.1259547 14.3468291,25.8312773 14.7103321,25.8312773 C15.0738351,25.8312773 15.3685125,26.1259547 15.3685125,26.4894577 L15.3685125,28.719702 C15.3685125,29.083205 15.0738351,29.3778824 14.7103321,29.3778824 Z" id="路径"></path>
                <line x1="24.6258199" y1="4.78168065" x2="23.0488196" y2="6.3586809" id="路径"></line>
                <path d="M23.0488196,7.01686245 C22.7826542,7.01680447 22.5427223,6.85644464 22.4408729,6.61053663 C22.3390235,6.36462862 22.3953071,6.08158316 22.5834861,5.89334735 L24.1604863,4.3163471 C24.4187424,4.06691502 24.8292534,4.07048225 25.0831358,4.32436467 C25.3370183,4.5782471 25.3405855,4.9887581 25.0911534,5.24701419 L23.5141532,6.82401444 C23.3909553,6.94776383 23.2234378,7.0171876 23.0488196,7.01686245 L23.0488196,7.01686245 Z" id="路径"></path>
                <line x1="6.3718445" y1="23.035656" x2="4.79484425" y2="24.6126563" id="路径"></line>
                <path d="M4.79484425,25.2708367 C4.52853415,25.270913 4.2884215,25.1105012 4.1865422,24.864449 C4.0846629,24.6183969 4.14109629,24.3351985 4.32951071,24.1469936 L5.90651096,22.5703225 C6.07176325,22.3992241 6.31647698,22.3306049 6.54659622,22.3908385 C6.77671546,22.4510722 6.95642831,22.6307851 7.01666198,22.8609043 C7.07689565,23.0910235 7.00827638,23.3357373 6.83717805,23.5009896 L5.26050689,25.0766734 C5.13736247,25.2008631 4.96973741,25.2707562 4.79484425,25.2708367 L4.79484425,25.2708367 Z" id="路径"></path>
                <line x1="4.79484425" y1="4.78168065" x2="6.3718445" y2="6.3586809" id="路径"></line>
                <path d="M6.3718445,7.01686245 C6.19722628,7.0171876 6.02970885,6.94776383 5.90651096,6.82401444 L4.32951071,5.24701419 C4.07251409,4.98992669 4.07258775,4.57317918 4.32967525,4.31618255 C4.58676275,4.05918593 5.00351027,4.0592596 5.26050689,4.3163471 L6.83717805,5.89334735 C7.02535704,6.08158316 7.08164067,6.36462862 6.97979125,6.61053663 C6.87794183,6.85644464 6.63800996,7.01680447 6.3718445,7.01686245 L6.3718445,7.01686245 Z" id="路径"></path>
                <line x1="23.0488196" y1="23.035656" x2="24.6258199" y2="24.6126563" id="路径"></line>
                <path d="M24.6258199,25.2708384 C24.4510115,25.2708384 24.2834671,25.2009059 24.1604863,25.0766734 L22.5834861,23.4996732 C22.334054,23.2414171 22.3376212,22.8309061 22.5915036,22.5770237 C22.8453861,22.3231412 23.2558971,22.319574 23.5141532,22.5690061 L25.0911534,24.1456773 C25.2805133,24.3337561 25.3375488,24.6175681 25.2355493,24.8641992 C25.1335498,25.1108304 24.8927102,25.2714498 24.6258199,25.2708384 L24.6258199,25.2708384 Z" id="路径"></path>
            </g>
        </g>
    </g>
</svg>
