<?xml version="1.0" encoding="UTF-8"?>
<svg width="44px" height="44px" viewBox="0 0 44 44" version="1.1" xmlns="http://www.w3.org/2000/svg" xmlns:xlink="http://www.w3.org/1999/xlink">
    <title>CO2</title>
    <g id="CO2" stroke="none" stroke-width="1" fill="none" fill-rule="evenodd">
        <g transform="translate(8.357143, 9.543478)" fill="#597EF7" fill-rule="nonzero">
            <g>
                <path d="M15.9639168,0.0124188886 C17.6789053,0.0128806744 19.2694529,0.907866832 20.1599958,2.37351304 L20.2766581,2.37351304 C23.6756703,2.37351304 26.4409673,5.13878558 26.4409673,8.53779776 C26.4436882,9.50751035 26.2150759,10.4638894 25.7740862,11.3275317 C25.4006669,12.0589687 24.8861135,12.7092271 24.2601107,13.2407932 C24.265003,13.3198225 24.267261,13.3992282 24.267261,13.4778811 C24.2679321,14.7910005 23.622327,16.0203443 22.5408936,16.7651831 C21.4594602,17.5100219 20.080731,17.6749411 18.8541309,17.206182 C18.1664748,18.5208586 16.8044254,19.3436879 15.3207689,19.3407335 C13.1191119,19.337203 11.3351939,17.553285 11.3316714,15.351628 C11.3398066,15.0275197 11.6048848,14.7690115 11.9290952,14.7690115 C12.2533055,14.7690115 12.5183838,15.0275197 12.526519,15.351628 C12.5247981,16.7285305 13.5257265,17.9017453 14.8857154,18.1169049 C16.2457043,18.3320645 17.5599076,17.5251195 17.9833034,16.2149289 C18.0390338,16.04258 18.1699705,15.9048366 18.3392764,15.8404506 C18.5085822,15.7760646 18.6979599,15.7919945 18.8541309,15.8837585 C19.7183597,16.394465 20.7900371,16.4027023 21.6620143,15.9053408 C22.5339915,15.4079794 23.0724384,14.4813536 23.0727897,13.4775048 C23.0726052,13.3389633 23.0624178,13.200616 23.042307,13.0635418 C23.0100225,12.8474115 23.0983569,12.6309055 23.2726209,12.4990469 C24.5200037,11.5634514 25.2517367,10.0932877 25.2460952,8.53403446 C25.2460952,5.79397603 23.0167166,3.56647901 20.2766581,3.56647901 C20.1423083,3.56647901 20.0045716,3.57212396 19.8672111,3.58341386 C19.6247137,3.60288908 19.3945647,3.47360693 19.2850287,3.25638313 C18.511272,1.71865098 16.7828968,0.913398251 15.1078289,1.31021916 C13.4327609,1.70704008 12.2493252,3.20209615 12.2476585,4.92352484 L12.2436246,6.12949961 C12.7075332,6.04069669 13.1480511,5.84764579 13.5305673,5.56178045 C13.7931748,5.36214888 14.1678936,5.41320095 14.3675251,5.67580843 C14.5671567,5.9384159 14.5161046,6.31313469 14.2534972,6.51276625 C13.5005343,7.07759552 12.5841617,7.38195224 11.6428962,7.37984149 L0.698468402,7.37984149 C0.368624264,7.37984149 0.101232759,7.11243897 0.101232759,6.78259483 C0.101232759,6.45275069 0.368624264,6.18535919 0.698468402,6.18535919 L11.0485692,6.18441889 L11.0528109,4.92164319 C11.0528109,2.21583079 13.2558464,0.0124188886 15.9639168,0.0124188886 Z M10.0589234,13.0721974 C10.3887676,13.0721974 10.6561591,13.3395889 10.6561591,13.6694331 C10.6561591,13.9992772 10.3887676,14.2666687 10.0589234,14.2666687 L0.616804801,14.2666687 C0.286960663,14.2666687 0.0195691578,13.9992772 0.0195691578,13.6694331 C0.0195691578,13.3395889 0.286960663,13.0721974 0.616804801,13.0721974 L10.0589234,13.0721974 Z M11.894661,10.6064835 C12.2245051,10.6064835 12.4918966,10.873875 12.4918966,11.2037192 C12.4918966,11.5335633 12.2245051,11.8009548 11.894661,11.8009548 L8.97245886,11.8009548 C8.64261472,11.8009548 8.37522321,11.5335633 8.37522321,11.2037192 C8.37522321,10.873875 8.64261472,10.6064835 8.97245886,10.6064835 L11.894661,10.6064835 Z M5.06239059,10.6064835 C5.39223473,10.6064835 5.65962624,10.873875 5.65962624,11.2037192 C5.65962624,11.5335633 5.39223473,11.8009548 5.06239059,11.8009548 L3.45546167,11.8009548 C3.12561754,11.8009548 2.85822603,11.5335633 2.85822603,11.2037192 C2.85822603,10.873875 3.12561754,10.6064835 3.45546167,10.6064835 L5.06239059,10.6064835 Z M8.91902,8.40194264 C9.13239176,8.40194264 9.32955539,8.5157751 9.43624127,8.70056045 C9.54292715,8.88534581 9.54292715,9.11301076 9.43624127,9.29779612 C9.32955539,9.48258147 9.13239176,9.59641393 8.91902,9.59641393 L5.67505577,9.59641393 C5.34521163,9.59641393 5.07782012,9.32902242 5.07782012,8.99917828 C5.07782012,8.66933415 5.34521163,8.40194264 5.67505577,8.40194264 L8.91902,8.40194264 Z" id="形状结合"></path>
                <path d="M15.3760894,19.3200279 C13.7567619,19.3208141 12.2925204,18.3572198 11.6526362,16.8696814 C11.012752,15.3821431 11.3201613,13.6564499 12.4343542,12.481377 C13.5485471,11.306304 15.2554623,10.9076091 16.7749079,11.4675265 C17.077213,11.5792412 17.2317171,11.9148706 17.1200024,12.2171758 C17.0082878,12.5194809 16.6726583,12.673985 16.3703532,12.5622703 C14.8762281,12.0113474 13.2183868,12.7759462 12.667436,14.270061 C12.1164853,15.7641759 12.8810532,17.4220314 14.3751578,17.97301 C15.8692624,18.5239885 17.5271322,17.7594514 18.0781385,16.2653571 C18.1480072,16.0667864 18.3194448,15.9212645 18.5267276,15.8845796 C18.7340105,15.8478947 18.9449793,15.9257384 19.0787555,16.088268 C19.2125317,16.2507976 19.2483604,16.4727971 19.172506,16.6691592 C18.5846629,18.2592873 17.070264,19.3164101 15.3749604,19.3200279 L15.3760894,19.3200279 Z" id="路径"></path>
                <path d="M2.39872715,24.9043876 C1.73889529,24.8976137 1.2130369,24.6123556 0.821151968,24.0486133 C0.305579926,23.3268124 0.0477939047,22.189167 0.0477939047,20.6356769 C0.0477939047,19.1785273 0.264434517,18.0856651 0.697715742,17.3570903 C1.08232496,16.6970076 1.64932876,16.3669662 2.39872715,16.3669662 C3.44341912,16.3742419 4.13084851,16.917286 4.46101532,17.9960986 C4.59825031,18.4772992 4.44696567,18.7901548 4.00716139,18.9346655 C3.53975958,19.0377799 3.25123995,18.8795959 3.14160249,18.4601134 C3.02468932,17.9997364 2.77718965,17.769548 2.39910348,17.769548 C2.13115655,17.7763219 1.92492773,17.9274811 1.78041703,18.2230256 C1.56064034,18.6768795 1.45075199,19.4810966 1.45075199,20.6356769 C1.45752593,21.8730498 1.56741427,22.6876787 1.78041703,23.0795637 C1.93847561,23.3615602 2.14470443,23.5024331 2.39910348,23.5021822 C2.76339088,23.5021822 3.0006042,23.2959534 3.11074343,22.8834958 C3.24797842,22.4298927 3.53323653,22.247749 3.96651776,22.3370647 C4.40632203,22.4401791 4.57128,22.7529093 4.46139165,23.2752552 C4.19996777,24.3613435 3.51241294,24.9043876 2.39872715,24.9043876 Z" id="路径"></path>
                <path d="M5.94601334,24.0177542 C5.54735447,23.3373497 5.34802503,22.2099906 5.34802503,20.6356769 C5.34802503,19.0272427 5.53368115,17.9205817 5.90499337,17.315694 C6.2968783,16.6834597 6.84682181,16.3672171 7.55482391,16.3669662 C8.29694658,16.3742419 8.8674628,16.7110572 9.26637256,17.3774121 C9.5960376,17.9544514 9.76099556,19.0405397 9.76124645,20.6356769 C9.76124645,22.2237893 9.5856258,23.3305757 9.23438451,23.9560361 C8.88314321,24.5882705 8.32303879,24.9043876 7.55407125,24.9043876 C6.81872251,24.8976137 6.2827032,24.6020692 5.94601334,24.0177542 Z M8.12120049,18.2952809 C7.99048855,17.9440396 7.80157092,17.768419 7.55444758,17.768419 C7.3135964,17.7751929 7.12104091,17.9573366 6.97678109,18.3148501 C6.82624911,18.7273077 6.75098312,19.5005403 6.75098312,20.6345479 C6.75098312,21.7620325 6.82323847,22.5353905 6.96774917,22.9546221 C7.10498416,23.3191604 7.30092663,23.5013041 7.55557657,23.5010535 C7.81624778,23.4942793 8.00867784,23.3121356 8.13286672,22.9546221 C8.2833987,22.5215918 8.3586647,21.7482337 8.3586647,20.6345479 C8.35163987,19.4947699 8.27248514,18.7150143 8.12120049,18.2952809 Z" id="形状"></path>
                <path d="M11.8374588,20.2612286 C12.1809226,20.2649919 12.4556435,20.3752566 12.6616214,20.5920226 C12.859571,20.7939864 12.9586712,21.0762339 12.9589221,21.438765 C12.9550494,21.6737514 12.8995471,21.905011 12.7963476,22.116159 C12.7140567,22.3068328 12.4579015,22.6228245 12.0278818,23.0641341 C11.6094029,23.4680616 11.400038,23.7671185 11.3997871,23.9613048 C11.4035504,24.0809777 11.4633868,24.1408141 11.5792965,24.1408141 L12.7233395,24.1408141 C12.8317226,24.1445774 12.9102501,24.1763146 12.9589221,24.2360256 C13.0139743,24.320969 13.0413231,24.4208973 13.0371987,24.5220364 C13.042612,24.6241484 13.0130056,24.7250491 12.9532772,24.8080472 C12.8939497,24.8714607 12.8101299,24.9061684 12.7233395,24.9032586 L11.1867843,24.9032586 C10.820239,24.8994953 10.6370917,24.7163481 10.6373423,24.3538169 C10.6373423,23.7705055 10.8784447,23.241511 11.3606488,22.7668335 C11.7369787,22.3932633 11.9669163,22.1423766 12.0504616,22.0141736 C12.1475547,21.8799492 12.1961013,21.6873937 12.1961013,21.4365071 C12.192338,21.306046 12.1606008,21.2056914 12.1008898,21.1354431 C12.0410533,21.0601771 11.9529921,21.0225441 11.8374588,21.0225441 C11.7414183,21.0205037 11.6485196,21.0567965 11.5792965,21.1234005 C11.5128688,21.1840821 11.475952,21.2705416 11.4780637,21.3604884 C11.4777231,21.4699995 11.4376005,21.5756559 11.3651647,21.6577891 C11.301565,21.7213888 11.2116221,21.7530006 11.0960888,21.7530006 C10.9805555,21.7530006 10.892118,21.7191309 10.8326578,21.6521441 C10.7549537,21.5752628 10.712348,21.4697694 10.7148666,21.3604884 C10.7148666,21.0240494 10.8403099,20.7529664 11.0911965,20.5472394 C11.32703,20.3565655 11.5757841,20.2612286 11.8374588,20.2612286 Z" id="路径"></path>
            </g>
        </g>
    </g>
</svg>
