<?xml version="1.0" encoding="UTF-8"?>
<svg width="44px" height="44px" viewBox="0 0 44 44" version="1.1" xmlns="http://www.w3.org/2000/svg" xmlns:xlink="http://www.w3.org/1999/xlink">
    <title>Air pressure</title>
    <g id="Air-pressure" stroke="none" stroke-width="1" fill="none" fill-rule="evenodd">
        <g transform="translate(8.000000, 10.947368)" fill="#597EF7" fill-rule="nonzero" id="形状">
            <g>
                <path d="M8.79006265,13.8628456 C8.10558384,13.8628456 7.55044772,13.3084515 7.54953362,12.6239733 L7.54953362,1.27929556 C7.54953362,0.594170296 8.10493738,0.0387665321 8.79006265,0.0387665321 C9.47518791,0.0387665321 10.0305917,0.594170296 10.0305917,1.27929556 L10.0305917,12.6239733 C10.0296776,13.3084515 9.47454145,13.8628456 8.79006265,13.8628456 Z M13.7528414,16.6255409 C13.0677162,16.6255409 12.5123124,16.0701371 12.5123124,15.3850118 L12.5123124,3.69342336 C12.5123124,3.00829812 13.0677162,2.45289439 13.7528414,2.45289439 C14.4379667,2.45289439 14.9933705,3.00829812 14.9933705,3.69342336 L14.9933705,15.3850118 C14.9933705,16.0701371 14.4379667,16.6255409 13.7528414,16.6255409 L13.7528414,16.6255409 Z M18.7152889,13.8499234 C18.0301636,13.8499234 17.4747598,13.2945197 17.4747598,12.6093944 L17.4747598,1.26703606 C17.4674379,0.819065166 17.7022354,0.401953842 18.0890153,0.175828062 C18.4757951,-0.0502977174 18.9544513,-0.0502977174 19.3412311,0.175828062 C19.728011,0.401953842 19.9628085,0.819065166 19.9554866,1.26703606 L19.9554866,12.6080691 C19.9559263,12.9372769 19.8254572,13.2531518 19.5928273,13.4860924 C19.3601975,13.719033 19.044497,13.8499234 18.7152889,13.8499234 L18.7152889,13.8499234 Z"></path>
                <path d="M21.8994459,16.9999527 C19.4623625,16.9975785 17.4872571,15.0226213 17.4847,12.5855381 C17.4847,11.9004128 18.0401037,11.345009 18.725229,11.345009 C19.4103543,11.345009 19.965758,11.9004128 19.965758,12.5855381 L19.965758,12.5855381 C19.9475911,13.2817681 20.3051719,13.9339954 20.9019215,14.2931001 C21.4986712,14.6522047 22.2424144,14.6627186 22.8490765,14.3206258 C23.4557385,13.9785331 23.8316131,13.3366742 23.8331338,12.6402088 L23.8331338,12.5855381 C23.8442012,11.9084075 24.3962761,11.3652824 25.0734971,11.3652824 C25.7507182,11.3652824 26.302793,11.9084075 26.3138605,12.5855381 L26.3138605,12.5855381 C26.3113037,15.0224921 24.3363999,16.9973959 21.8994459,16.9999527 L21.8994459,16.9999527 Z M5.61617708,16.9999527 C3.17909366,16.9975785 1.20398824,15.0226213 1.20143116,12.5855381 C1.20143116,11.9004128 1.75683492,11.345009 2.44196018,11.345009 C3.12708545,11.345009 3.68248921,11.9004128 3.68248921,12.5855381 C3.67266402,13.276319 4.03211243,13.9198686 4.6254337,14.273768 C5.21875497,14.6276673 5.95580948,14.6381506 6.55895592,14.301269 C7.16210237,13.9643874 7.53970845,13.3313211 7.54953362,12.6405402 C7.54953362,12.6223166 7.54953362,12.6037617 7.54953362,12.5855381 C7.54953362,11.9004128 8.10493738,11.345009 8.79006265,11.345009 C9.47518791,11.345009 10.0305917,11.9004128 10.0305917,12.5855381 C10.0280349,15.0224921 8.05313111,16.9973959 5.61617708,16.9999527 L5.61617708,16.9999527 Z M26.1591257,21.6257608 L1.28691633,21.6257608 C0.838945439,21.6330828 0.421834115,21.3982853 0.195708335,21.0115054 C-0.0304174445,20.6247255 -0.0304174445,20.1460694 0.195708335,19.7592895 C0.421834115,19.3725097 0.838945439,19.1377122 1.28691633,19.1450341 L26.1591257,19.1450341 C26.6070966,19.1377122 27.0242079,19.3725097 27.2503337,19.7592895 C27.4764595,20.1460694 27.4764595,20.6247255 27.2503337,21.0115054 C27.0242079,21.3982853 26.6070966,21.6330828 26.1591257,21.6257608 L26.1591257,21.6257608 Z"></path>
            </g>
        </g>
    </g>
</svg>
