<?xml version="1.0" encoding="UTF-8"?>
<svg width="44px" height="44px" viewBox="0 0 44 44" version="1.1" xmlns="http://www.w3.org/2000/svg" xmlns:xlink="http://www.w3.org/1999/xlink">
    <title>Soil Humidity</title>
    <g id="Soil-Humidity" stroke="none" stroke-width="1" fill="none" fill-rule="evenodd">
        <g transform="translate(7.000000, 5.695652)" fill="#597EF7">
            <g>
                <path d="M17.6051181,22.8840799 C16.4819048,22.8840799 15.5680717,21.9702469 15.5680717,20.8469946 C15.5680717,19.7237813 16.4819048,18.8099873 17.6051181,18.8099873 C18.7283313,18.8099873 19.6422034,19.7237813 19.6422034,20.8469946 C19.6422034,21.9702469 18.7283313,22.8840799 17.6051181,22.8840799 L17.6051181,22.8840799 Z M18.2414559,31.2170538 L15.8812443,30.7584003 L15.8812443,25.4310319 L18.2414559,25.4310319 L18.2414559,31.2170538 Z M14.3198705,30.4549473 L11.9596588,29.9962547 L11.9596588,25.4310319 L14.3198705,25.4310319 L14.3198705,30.4549473 Z M11.3011494,22.5867553 C11.1812749,22.5867553 11.0614005,22.5410071 10.969943,22.4495496 C10.786989,22.2666347 10.786989,21.9700517 10.969943,21.7870977 L18.6419874,14.1150143 C18.8249023,13.9320994 19.1214853,13.9320994 19.3044392,14.1150143 C19.4873932,14.2979293 19.4873932,14.5945122 19.3044392,14.7774272 L11.6323558,22.4495496 C11.5409374,22.5410071 11.4210239,22.5867553 11.3011494,22.5867553 L11.3011494,22.5867553 Z M10.3284135,16.064897 C10.3284135,14.9416447 11.2422075,14.0278116 12.3654599,14.0278116 C13.4886731,14.0278116 14.4025062,14.9416447 14.4025062,16.064897 C14.4025062,17.1881102 13.4886731,18.1019043 12.3654599,18.1019043 C11.2422075,18.1019043 10.3284135,17.1881102 10.3284135,16.064897 L10.3284135,16.064897 Z M30.7942377,32.7573101 L26.0907553,30.7328328 C25.0112995,30.2586045 23.6122695,30.2783559 22.5631435,30.7827187 L22.3131285,30.9028664 C21.5725689,31.2588987 20.6903927,31.4374418 19.8028297,31.4246385 L19.8028297,25.4310319 L21.2816069,25.4310319 C21.5392336,25.4310319 21.750019,25.2202465 21.750019,24.9626198 L21.750019,12.4390747 C21.750019,12.181448 21.5392336,11.9706626 21.2816069,11.9706626 L16.5858532,11.9706626 L16.5858532,11.0561269 C16.5858532,10.7985393 16.3750287,10.5877148 16.1174411,10.5877148 L15.8440055,10.5877148 L15.9282416,4.03779072 C15.9355801,3.8147875 15.9313644,2.47298189 14.8554217,1.38443111 C13.8518877,0.369225869 12.2803259,-0.091418436 10.1843768,0.0150282228 C9.75371086,0.036887456 9.42242638,0.403771265 9.44432465,0.834359125 C9.46618388,1.26494698 9.83318479,1.59646568 10.2636555,1.57441127 C11.8588331,1.4930637 13.0564458,1.80100564 13.727251,2.4643553 C14.3754554,3.10529925 14.3703419,3.89855521 14.3682731,3.97420377 C14.367063,3.98934909 14.3673753,3.99173019 14.3671411,4.00910047 L14.2825146,10.5877148 L13.9085656,10.5877148 C13.6509389,10.5877148 13.4401534,10.7985393 13.4401534,11.0561269 L13.4401534,11.9706626 L8.87512583,11.9706626 C8.61746011,11.9706626 8.40671369,12.181448 8.40671369,12.4390747 L8.40671369,24.9626198 C8.40671369,25.2202465 8.61746011,25.4310319 8.87512583,25.4310319 L10.398285,25.4310319 L10.398285,29.6928407 L7.49323194,29.128287 C6.64427397,28.9411564 5.7116654,29.0940929 5.08438348,29.5233926 L0.118746381,32.8161348 C-0.134391346,32.9893692 0.0436052668,33.2830246 0.403931306,33.2866548 L30.56495,33.2653421 C30.9753961,33.2694797 31.1383255,32.9084901 30.7942377,32.7573101 L30.7942377,32.7573101 Z" id="Fill-1"></path>
                <path d="M17.6051181,19.7468077 C16.9984463,19.7468077 16.504896,20.2403579 16.504896,20.8470297 C16.504896,21.4537015 16.9984463,21.9472518 17.6051181,21.9472518 C18.2117898,21.9472518 18.7053791,21.4537015 18.7053791,20.8470297 C18.7053791,20.2403579 18.2117898,19.7468077 17.6051181,19.7468077" id="Fill-3"></path>
                <path d="M12.3654442,17.1650878 C12.972116,17.1650878 13.4657053,16.6715375 13.4657053,16.0648657 C13.4657053,15.4581939 12.972116,14.9646437 12.3654442,14.9646437 C11.7587725,14.9646437 11.2652222,15.4581939 11.2652222,16.0648657 C11.2652222,16.6715375 11.7587725,17.1650878 12.3654442,17.1650878" id="Fill-5"></path>
            </g>
        </g>
    </g>
</svg>
