<?xml version="1.0" encoding="UTF-8"?>
<svg width="44px" height="44px" viewBox="0 0 44 44" version="1.1" xmlns="http://www.w3.org/2000/svg" xmlns:xlink="http://www.w3.org/1999/xlink">
    <title>Wind Direction</title>
    <g id="Wind-Direction" stroke="none" stroke-width="1" fill="none" fill-rule="evenodd">
        <g transform="translate(7.000000, 9.195122)" fill="#597EF7" fill-rule="nonzero" id="路径">
            <g>
                <path d="M28.6803026,0.0450546372 L22.7815074,1.64752031 C22.3716447,1.75914822 22.0703839,2.24130008 22.0572709,2.80650042 L22.0451667,3.33034463 L5.25390866,3.38346876 L5.25390866,1.9349958 C5.25397991,1.81783741 5.19263752,1.70921397 5.09227233,1.64877457 C4.99190714,1.58833518 4.86720626,1.58492434 4.76368731,1.63978706 L0.209806669,4.0438218 C0.100216331,4.10168483 0.0316413568,4.21543867 0.0316413568,4.33936677 C0.0316413568,4.46329486 0.100216331,4.57704871 0.209806669,4.63491174 L4.76368731,7.03894648 C4.86727911,7.09362625 4.99193688,7.09008096 5.09225354,7.02960198 C5.1925702,6.96912301 5.25390202,6.86053878 5.25390866,6.74340151 L5.25390866,5.4011768 L10.7256935,5.38369291 C11.1335388,5.48019053 13.0688708,6.03463155 13.2615298,7.90540768 L13.2615298,17.0417484 L13.0386103,17.0417484 C12.6017493,17.0419339 12.2476498,17.3960334 12.2474643,17.8328944 L12.2474643,20.5876156 C12.2475412,20.6465633 12.2541948,20.7053185 12.2673018,20.7627907 L10.7482208,20.7627907 C10.3112829,20.7627907 9.95707481,21.1169988 9.95707481,21.5539367 L9.95707481,24.3093303 C9.95726045,24.7461369 10.3114142,25.1001402 10.7482208,25.1001402 L18.9733819,25.1001402 C19.1831759,25.1001402 19.3844079,25.0169515 19.5327862,24.8686362 C19.6811645,24.7203209 19.7645279,24.5191244 19.7645279,24.3093303 L19.7645279,21.5539367 C19.7646171,21.3440844 19.6812931,21.1428014 19.5329051,20.9944134 C19.3845171,20.8460254 19.1832342,20.7627015 18.9733819,20.7627907 L17.452956,20.7627907 C17.4660629,20.7053185 17.4727166,20.6465633 17.4727935,20.5876156 L17.4727935,17.8328944 C17.4727935,17.3959565 17.1185854,17.0417484 16.6816475,17.0417484 L16.4587279,17.0417484 L16.4587279,7.96054917 C16.5996077,6.03765761 18.5581395,5.46203418 18.9925469,5.35780331 L22.0260017,5.34805268 C22.1103951,5.87256935 22.4503222,6.26763799 22.8665733,6.2770524 L28.7243486,6.41154385 C29.2142337,6.42297562 29.6237602,5.89375175 29.6388904,5.2297002 L29.7289997,1.24404595 C29.7464836,0.476772205 29.2360885,-0.106248249 28.6803026,0.0450546372 Z"></path>
            </g>
        </g>
    </g>
</svg>
