<?xml version="1.0" encoding="UTF-8"?>
<svg width="44px" height="44px" viewBox="0 0 44 44" version="1.1" xmlns="http://www.w3.org/2000/svg" xmlns:xlink="http://www.w3.org/1999/xlink">
    <title>wind speed备份</title>
    <g id="wind-speed备份" stroke="none" stroke-width="1" fill="none" fill-rule="evenodd">
        <g id="Wind-Speed" transform="translate(7.000000, 9.222222)" fill="#597EF7" fill-rule="nonzero">
            <path d="M25.5501566,0.467206843 C23.8549803,0.467232869 22.4133238,1.70397334 22.155422,3.37941641 L18.0821581,3.39229767 C17.8788431,1.4855228 16.4629487,0.0087035552 14.7459114,0.0087035552 C13.0226074,0.0087035552 11.6025354,1.49631521 11.4075757,3.41318621 L6.84412767,3.42780818 C6.59321795,1.61494369 4.96555695,0.316780662 3.14229461,0.475361181 C1.31903227,0.6339417 -0.0600642935,2.19362123 0.00577830005,4.02258216 C0.0716208936,5.85154309 1.55929905,7.30801872 3.38924463,7.33508376 C5.2191902,7.36214879 6.749291,5.95030634 6.86919391,4.1240926 L11.3898205,4.10807805 C11.4625822,5.44529227 12.1292745,6.59764298 13.0908433,7.2222101 L13.0908433,16.874801 L12.860025,16.874801 C12.4077974,16.874801 12.0411945,17.2414039 12.0411945,17.6936314 L12.0411945,20.5442198 C12.0412743,20.6053712 12.0481636,20.6663236 12.0617349,20.7259501 L10.4881322,20.7259501 C10.0359046,20.7259501 9.66930168,21.092553 9.66930168,21.5447805 L9.66930168,24.3953689 C9.66930168,24.8475965 10.0359046,25.2141994 10.4881322,25.2141994 L19.0009054,25.2141994 C19.453133,25.2141994 19.8197359,24.8475965 19.8197359,24.3953689 L19.8197359,21.5447805 C19.8197359,21.092553 19.453133,20.7259501 19.0009054,20.7259501 L17.4273026,20.7259501 C17.440874,20.6663236 17.4477633,20.6053712 17.447843,20.5442198 L17.447843,17.6936314 C17.447843,17.2414039 17.0812401,16.874801 16.6290126,16.874801 L16.397498,16.874801 L16.397498,7.22360267 C17.3642889,6.5969467 18.0337664,5.43449987 18.0995652,4.08823395 L22.1195633,4.07570083 C22.2147345,5.94707098 23.7924769,7.39668655 25.6651964,7.33339676 C27.5379158,7.27010697 29.0141886,5.71727892 28.9827986,3.84375325 C28.9514086,1.97022757 27.4239452,0.467725691 25.5501566,0.467206843 L25.5501566,0.467206843 Z" id="路径"></path>
        </g>
    </g>
</svg>
