<?xml version="1.0" encoding="UTF-8"?>
<svg width="44px" height="44px" viewBox="0 0 44 44" version="1.1" xmlns="http://www.w3.org/2000/svg" xmlns:xlink="http://www.w3.org/1999/xlink">
    <title>Water PH</title>
    <g id="Water-PH" stroke="none" stroke-width="1" fill="none" fill-rule="evenodd">
        <g transform="translate(12.000000, 7.600000)" fill="#597EF7" fill-rule="nonzero">
            <g>
                <path d="M6.08962264,15.8122642 C5.34224319,15.868239 4.94067086,16.3668763 4.88490566,17.3081761 C4.94067086,18.3060797 5.34224319,18.8323899 6.08962264,18.8871069 C6.80974843,18.8323899 7.21174004,18.3199161 7.29559748,17.3496855 C7.21174004,16.3805031 6.80974843,15.8680294 6.08962264,15.8122642 Z" id="路径"></path>
                <path d="M18.558805,13.3273585 L10.5204403,0.287106918 L10.5204403,0.290566038 C10.4692881,0.207633652 10.3985604,0.138525606 10.3144654,0.0893081761 C10.0302588,-0.077878113 9.66462423,0.0113010517 9.48930818,0.290566038 L1.45062893,13.3273585 C-0.458794053,16.412869 -0.458794053,20.3129172 1.45062893,23.3984277 C4.29654088,28.0147799 10.4333333,29.5028302 15.1578616,26.7220126 C19.8823899,23.941195 21.404717,17.9440252 18.558805,13.3273585 Z M6.29748428,20.2166667 C5.71572327,20.2166667 5.24486373,20.0642558 4.88490566,19.759434 L4.88490566,21.5462264 C4.85702306,22.1001048 4.60765199,22.3908805 4.13679245,22.4185535 C3.63825996,22.3908805 3.37515723,22.1001048 3.34748428,21.5462264 L3.34748428,15.3144654 C3.37494759,14.7607966 3.63805031,14.4699161 4.13679245,14.4418239 C4.55251572,14.4418239 4.80188679,14.6634172 4.88490566,15.1066038 C5.16142558,14.6638365 5.64612159,14.4284067 6.33899371,14.4003145 C7.86205451,14.5114256 8.69308176,15.5224319 8.83207547,17.4333333 C8.69308176,19.1779874 7.84821803,20.1057652 6.29748428,20.2166667 Z M16.4465409,19.427044 C16.4188679,19.9257862 16.1557652,20.1751572 15.6572327,20.1751572 C15.1308176,20.1751572 14.8537736,19.9257862 14.8261006,19.427044 L14.8261006,17.1 L11.5009434,17.1 L11.5009434,19.427044 C11.4732704,19.9257862 11.2101677,20.1751572 10.7116352,20.1751572 C10.2131027,20.1751572 9.95,19.9257862 9.92232704,19.427044 L9.92232704,13.3610063 C9.94937107,12.8352201 10.2124738,12.5581761 10.7116352,12.5298742 C11.2099581,12.5577568 11.4730608,12.8348008 11.5009434,13.3610063 L11.5009434,15.604717 L14.8248428,15.604717 L14.8248428,13.3610063 C14.8520964,12.8352201 15.1291405,12.5581761 15.6559748,12.5298742 C16.1542977,12.5577568 16.4174004,12.8348008 16.445283,13.3610063 L16.4465409,19.427044 Z" id="形状"></path>
            </g>
        </g>
    </g>
</svg>
