<?xml version="1.0" encoding="UTF-8"?>
<svg width="44px" height="44px" viewBox="0 0 44 44" version="1.1" xmlns="http://www.w3.org/2000/svg" xmlns:xlink="http://www.w3.org/1999/xlink">
    <title>Light quantum</title>
    <g id="Light-quantum" stroke="none" stroke-width="1" fill="none" fill-rule="evenodd">
        <g transform="translate(6.500000, 6.500000)" fill="#597EF7" fill-rule="nonzero">
            <g>
                <path d="M3.04653975,16.184916 L0.694288914,16.184916 C0.310843735,16.184916 0,15.8740723 0,15.4906271 C0,15.1071819 0.310843735,14.7963382 0.694288914,14.7963382 L3.0468869,14.7963382 C3.43033208,14.7963382 3.74117581,15.1071819 3.74117581,15.4906271 C3.74117581,15.8740723 3.43033208,16.184916 3.0468869,16.184916 L3.04653975,16.184916 Z" id="路径"></path>
                <line x1="27.9253415" y1="15.5249365" x2="30.2775924" y2="15.5249365" id="路径"></line>
                <path d="M30.2775924,16.184916 L27.9253415,16.184916 C27.5418964,16.184916 27.2310526,15.8740723 27.2310526,15.4906271 C27.2310526,15.1071819 27.5418964,14.7963382 27.9253415,14.7963382 L30.2775924,14.7963382 C30.6610376,14.7963382 30.9718813,15.1071819 30.9718813,15.4906271 C30.9718813,15.8740723 30.6610376,16.184916 30.2775924,16.184916 Z" id="路径"></path>
                <path d="M15.4857671,3.74534155 C15.1023219,3.74534155 14.7914782,3.43449781 14.7914782,3.05105263 L14.7914782,0.698801792 C14.7914782,0.315356613 15.1023219,0.00451287794 15.4857671,0.00451287794 C15.8692123,0.00451287794 16.180056,0.315356613 16.180056,0.698801792 L16.180056,3.05105263 C16.180056,3.43449781 15.8692123,3.74534155 15.4857671,3.74534155 Z" id="路径"></path>
                <path d="M15.4857671,30.9767413 C15.1023219,30.9767413 14.7914782,30.6658976 14.7914782,30.2824524 L14.7914782,27.9298544 C14.7914782,27.5464092 15.1023219,27.2355655 15.4857671,27.2355655 C15.8692123,27.2355655 16.180056,27.5464092 16.180056,27.9298544 L16.180056,30.2824524 C16.180056,30.4665893 16.1069079,30.6431844 15.9767035,30.7733888 C15.846499,30.9035932 15.6699039,30.9767413 15.4857671,30.9767413 L15.4857671,30.9767413 Z" id="路径"></path>
                <line x1="25.9452296" y1="5.03116461" x2="24.2817133" y2="6.69468085" id="路径"></line>
                <path d="M24.2817133,7.38896998 C24.0009457,7.38890981 23.7478509,7.21975246 23.6404139,6.96035367 C23.532977,6.70095487 23.5923484,6.40238123 23.7908511,6.20381859 L25.4543673,4.54030235 C25.7267916,4.27718615 26.1598237,4.28094908 26.4276344,4.54875978 C26.6954451,4.81657048 26.699208,5.24960256 26.4360918,5.52202688 L24.7729227,7.18589026 C24.6426067,7.31606149 24.4659056,7.3891146 24.2817133,7.38896998 Z" id="路径"></path>
                <line x1="6.68982083" y1="24.2865733" x2="5.02665174" y2="25.9500896" id="路径"></line>
                <path d="M5.02665174,26.6443787 C4.74566837,26.6445996 4.49225423,26.475439 4.38469663,26.2158565 C4.27713903,25.956274 4.33664645,25.6574548 4.53544233,25.4588802 L6.19895857,23.7957111 C6.37327679,23.6152261 6.63141578,23.5428423 6.87415962,23.6063805 C7.11690346,23.6699186 7.30647555,23.8594907 7.3700137,24.1022346 C7.43355186,24.3449784 7.36116807,24.6031174 7.18068309,24.7774356 L5.517514,26.4409518 C5.38733987,26.5711653 5.21077355,26.6443392 5.02665174,26.6443787 L5.02665174,26.6443787 Z" id="路径"></path>
                <line x1="5.02665174" y1="5.03116461" x2="6.68982083" y2="6.69468085" id="路径"></line>
                <path d="M6.68982083,7.38896976 C6.50574882,7.38902252 6.32918951,7.31597641 6.19895857,7.18589026 L4.53544233,5.52237402 C4.26434659,5.25118242 4.2644243,4.81157167 4.5356159,4.54047592 C4.8068075,4.26938018 5.24641826,4.26945789 5.517514,4.5406495 L7.18068309,6.20416573 C7.37918579,6.40272837 7.4385572,6.70130202 7.33112021,6.96070081 C7.22368322,7.22009961 6.97058842,7.38925696 6.68982083,7.38931691 L6.68982083,7.38896976 Z" id="路径"></path>
                <line x1="24.2817133" y1="24.2865733" x2="25.9452296" y2="25.9500896" id="路径"></line>
                <path d="M25.9452296,26.6443785 C25.7611077,26.6443392 25.5845414,26.5711653 25.4543673,26.4409518 L23.7908511,24.7774356 C23.6154829,24.6020054 23.5470269,24.3463434 23.6112698,24.106755 C23.6755127,23.8671665 23.8626945,23.6800509 24.1023056,23.6158927 C24.3419167,23.5517345 24.5975545,23.6202809 24.7729227,23.7957111 L26.4360918,25.4588802 C26.6348429,25.6574102 26.6943723,25.9561451 26.5869037,26.215696 C26.4794352,26.4752469 26.2261497,26.644459 25.9452296,26.6443785 L25.9452296,26.6443785 Z" id="路径"></path>
                <path d="M17.2680067,13.5563382 C16.3293281,13.6188242 15.8287458,14.2340799 15.7662598,15.4021053 C15.8287458,16.5703621 16.3293281,17.1856178 17.2680067,17.2478723 C17.4471794,17.2490375 17.625809,17.2280497 17.799832,17.1853863 L17.5182979,16.9038522 C17.4141545,16.7997088 17.3617357,16.6955655 17.3617357,16.5914222 C17.4033931,16.2162747 17.5806682,16.018171 17.893561,15.9971109 C18.0105234,15.9940485 18.1235649,16.0393907 18.205991,16.12243 L18.5816013,16.43486 C18.7297064,16.1110384 18.804502,15.7585152 18.8006495,15.4024524 C18.7381635,14.234427 18.2272826,13.6190556 17.2680067,13.5563382 Z" id="路径"></path>
                <path d="M15.4770885,6.70856663 C10.6146361,6.70856663 6.67246361,10.6503919 6.67246361,15.5131915 C6.67246361,20.375991 10.6146361,24.3178163 15.4770885,24.3178163 C20.3395409,24.3178163 24.2817133,20.3773796 24.2817133,15.5131915 C24.2817133,10.6490034 20.339888,6.70856663 15.4770885,6.70856663 Z M13.3109071,18.2490372 L11.308925,18.2490372 C10.9333147,18.2286711 10.7352109,18.009623 10.7146137,17.5918925 L10.7146137,13.1182419 C10.7352109,12.7224972 10.9333147,12.5142105 11.308925,12.4933819 C11.6843038,12.5142105 11.8824076,12.7224972 11.9032363,13.1182419 L11.9032363,17.1541433 L13.3109071,17.1541433 C13.6865174,17.1541433 13.8847368,17.3418328 13.9055655,17.7172116 C13.8430795,18.0719933 13.64486,18.2492684 13.3109071,18.2490372 L13.3109071,18.2490372 Z M19.6768421,18.561467 C19.5305786,18.5818328 19.3533035,18.4984024 19.1450168,18.3111758 L18.6756775,17.9987458 C18.3002986,18.1866667 17.831075,18.2805114 17.2680067,18.28028 C15.5577417,18.1761366 14.6400075,17.2167451 14.514804,15.4021053 C14.6402389,13.5670997 15.5579731,12.5868794 17.2680067,12.4614446 C18.9574431,12.5864166 19.8750616,13.5666368 20.0208623,15.4021053 C20.0208623,16.152863 19.8435872,16.7681187 19.489037,17.2478723 L19.9583763,17.6547256 C20.1462971,17.8007577 20.2401418,17.9570885 20.2399108,18.1237178 C20.1980216,18.3741247 20.0103322,18.5201568 19.6768421,18.5618141 L19.6768421,18.561467 Z" id="形状"></path>
            </g>
        </g>
    </g>
</svg>
