<?xml version="1.0" encoding="UTF-8"?>
<svg width="44px" height="44px" viewBox="0 0 44 44" version="1.1" xmlns="http://www.w3.org/2000/svg" xmlns:xlink="http://www.w3.org/1999/xlink">
    <title>Soil Electrical Conductivity</title>
    <g id="Soil-Electrical-Conductivity" stroke="none" stroke-width="1" fill="none" fill-rule="evenodd">
        <g transform="translate(6.500000, 4.562500)" fill="#597EF7" fill-rule="nonzero">
            <g>
                <path d="M0.131798742,33.5006664 L5.09218868,30.2383186 C5.71869893,29.8128955 6.65035401,29.661203 7.49849057,29.8465234 L18.5906415,31.9844191 C19.8483131,32.2595674 21.2262703,32.1188472 22.3044025,31.6051614 L22.5539623,31.4860556 C23.6019552,30.9863523 24.9995572,30.9667731 26.0778239,31.4366894 L30.7753962,33.4421584 C31.1189308,33.5920853 30.956327,33.9496637 30.5461132,33.9454846 L0.416842767,33.9666415 C0.253128838,33.9650763 0.106613856,33.8982084 0.0445341048,33.7967236 C-0.0175456464,33.6952389 0.0167956893,33.5787312 0.131798742,33.5006664 L0.131798742,33.5006664 Z" id="路径"></path>
                <path d="M21.5194591,11.9769182 L16.8285157,11.9769182 L16.8285157,11.0632956 C16.8285157,10.804868 16.6190188,10.5953711 16.3605912,10.5953711 L16.0876352,10.5953711 L16.1718616,4.05222642 C16.1792704,3.82957233 16.1749811,2.48896855 15.1003145,1.40065409 C14.0977862,0.38681761 12.5267296,-0.0736981132 10.4339371,0.0323647799 C10.0032245,0.0539004178 9.67152098,0.420520073 9.69305662,0.851232704 C9.71459225,1.28194533 10.0812119,1.61364883 10.5119245,1.59211321 C12.1055975,1.51100629 13.3019245,1.81866667 13.9718365,2.48116981 C14.3746994,2.88060977 14.604741,3.42218068 14.6125031,3.98944654 C14.6116835,4.0011303 14.6116835,4.01285713 14.6125031,4.02454088 L14.5278868,10.5961509 L14.154717,10.5961509 C13.8962894,10.5961509 13.6867925,10.8056479 13.6867925,11.0640755 L13.6867925,11.9776981 L9.1245283,11.9776981 C8.86610072,11.9776981 8.65660377,12.1871951 8.65660377,12.4456226 L8.65660377,24.9559748 C8.65660377,25.2144024 8.86610072,25.4238994 9.1245283,25.4238994 L10.645283,25.4238994 L10.645283,31.6722516 C10.645283,32.1029642 10.9944446,32.4521258 11.4251572,32.4521258 C11.8558699,32.4521258 12.2050314,32.1029642 12.2050314,31.6722516 L12.2050314,25.4238994 L14.5629811,25.4238994 L14.5629811,31.6722516 C14.5629811,32.1029642 14.9121427,32.4521258 15.3428553,32.4521258 C15.773568,32.4521258 16.1227296,32.1029642 16.1227296,31.6722516 L16.1227296,25.4238994 L18.4830189,25.4238994 L18.4830189,31.6722516 C18.4830189,32.1029642 18.8321804,32.4521258 19.2628931,32.4521258 C19.6936057,32.4521258 20.0427673,32.1029642 20.0427673,31.6722516 L20.0427673,25.4238994 L21.520239,25.4238994 C21.7786666,25.4238994 21.9881635,25.2144024 21.9881635,24.9559748 L21.9881635,12.4448428 C21.9881635,12.3206062 21.9387576,12.2014695 21.850836,12.1136941 C21.7629144,12.0259188 21.6436955,11.9767112 21.5194591,11.9769182 Z M13.5066415,21.4133962 L11.1872956,21.4133962 C10.7656436,21.39026 10.5431195,21.1677358 10.5197233,20.7458239 L10.5197233,15.7893333 C10.5197233,15.2740964 10.7422474,15.016348 11.1872956,15.0160881 L13.4364528,15.0160881 C13.8347086,15.0400042 14.0455346,15.2391321 14.0689308,15.6134717 C14.0455346,16.0122474 13.8347086,16.2232034 13.4364528,16.2463396 L11.8540881,16.2463396 L11.8540881,17.5471698 L13.33,17.5471698 C13.7279958,17.570826 13.9505199,17.781652 13.9975723,18.1796478 C13.9505199,18.5781635 13.7279958,18.7889895 13.33,18.8121258 L11.8540881,18.8121258 L11.8540881,20.1827547 L13.5054717,20.1827547 C13.9034675,20.1827547 14.1142935,20.3818826 14.1379497,20.7801384 C14.1153333,21.1781342 13.9048973,21.3887002 13.5066415,21.4118365 L13.5066415,21.4133962 Z M18.017434,21.4484906 C16.0963438,21.3315094 15.0656101,20.2538532 14.9252327,18.215522 C15.0656101,16.1543145 16.0963438,15.0532621 18.017434,14.9123648 C19.2589937,14.9825535 19.9032998,15.3104906 19.9503522,15.8961761 C19.9264361,16.2712956 19.7507044,16.4704235 19.4231572,16.4935597 C19.3059161,16.4935597 19.1535807,16.4584654 18.9661509,16.3882767 C18.6623295,16.2757594 18.3414011,16.2164015 18.017434,16.212805 C16.9635639,16.2829937 16.4012746,16.9622642 16.330566,18.2506164 C16.4012746,19.492956 16.9635639,20.1489602 18.017434,20.2186289 C18.3215849,20.2186289 18.649522,20.1366122 19.0012453,19.9725786 C19.2122013,19.8793836 19.3642767,19.8322013 19.4582516,19.8322013 C19.8094549,19.8555975 20.0085828,20.0664235 20.0556352,20.4646792 C20.032239,21.0961174 19.3528386,21.4234046 18.017434,21.4465409 L18.017434,21.4484906 Z" id="形状"></path>
            </g>
        </g>
    </g>
</svg>
