<?xml version="1.0" encoding="UTF-8"?>
<svg width="44px" height="44px" viewBox="0 0 44 44" version="1.1" xmlns="http://www.w3.org/2000/svg" xmlns:xlink="http://www.w3.org/1999/xlink">
    <title>Dissolved oxygen备份</title>
    <g id="Dissolved-oxygen备份" stroke="none" stroke-width="1" fill="none" fill-rule="evenodd">
        <g id="Dissolved-Oxygen备份-2" transform="translate(12.320000, 8.800000)" fill="#597EF7" fill-rule="nonzero">
            <g id="Dissolved-Oxygen备份">
                <g id="Dissolved-Oxygen">
                    <path d="M17.6541621,12.7035019 L10.0030874,0.291532229 L10.0030874,0.294824687 C9.95433279,0.21594162 9.88702763,0.150177799 9.80703642,0.103263469 C9.53652295,-0.0558677515 9.18850472,0.0290147434 9.02163543,0.294824687 L1.37026134,12.7035019 C-0.447165269,15.6403519 -0.447165269,19.352495 1.37026134,22.289345 C4.07905669,26.6832804 9.92017727,28.0996362 14.4170769,25.4527989 C18.9139765,22.8059616 20.3629575,17.0977367 17.6541621,12.7035019 Z M5.30774231,19.9956987 L3.65822064,19.9956987 C3.18310891,19.9711549 2.93318138,19.7336988 2.90843806,19.2833304 L2.90843806,13.8845965 C2.93298184,13.4348268 3.17043793,13.1973707 3.62080634,13.1722283 L5.23291371,13.1722283 C7.40793171,13.2470569 8.53265547,14.4092947 8.60708498,16.6589417 C8.50711397,18.7836749 7.40733308,19.8959272 5.30774231,19.9956987 Z M13.2410706,20.033113 C11.1913655,19.907401 10.0916844,18.7576346 9.94202722,16.5838138 C10.091884,14.3848507 11.1915651,13.2101414 13.2410706,13.059686 C15.2656332,13.2095428 16.3654141,14.3842521 16.5404132,16.5838138 C16.3905565,18.7837747 15.2907756,19.9335411 13.2410706,20.033113 Z" id="形状"></path>
                    <path d="M5.19549941,14.4844226 L4.33317462,14.4844226 L4.33317462,18.6835044 L5.30774231,18.6835044 C6.45750871,18.6334191 7.05743454,17.9460935 7.10751982,16.6215274 C7.08237741,15.2219333 6.44503728,14.509565 5.19549941,14.4844226 Z" id="路径"></path>
                    <path d="M13.2410706,14.3718804 C12.116247,14.4469085 11.516421,15.1842197 11.4415924,16.5838138 C11.5162214,17.9840066 12.1160475,18.7217168 13.2410706,18.7969445 C14.3904379,18.7468593 15.0028352,18.0094483 15.0782624,16.5847118 C15.0032342,15.1847185 14.390837,14.4471081 13.2410706,14.3718804 Z" id="路径"></path>
                </g>
            </g>
        </g>
    </g>
</svg>