<?xml version="1.0" encoding="UTF-8"?>
<svg width="44px" height="44px" viewBox="0 0 44 44" version="1.1" xmlns="http://www.w3.org/2000/svg" xmlns:xlink="http://www.w3.org/1999/xlink">
    <title>soli volimetric water content备份</title>
    <defs>
        <polygon id="path-1" points="0 -5.78634363e-15 29.9666667 -5.78634363e-15 29.9666667 4.13333333 0 4.13333333"></polygon>
        <polygon id="path-3" points="1.87208293e-13 2.50845525e-13 13.4333333 2.50845525e-13 13.4333333 31 1.87208293e-13 31"></polygon>
    </defs>
    <g id="soli-volimetric-water-content备份" stroke="none" stroke-width="1" fill="none" fill-rule="evenodd">
        <g id="编组-2" transform="translate(6.500000, 5.983333)">
            <g id="编组" transform="translate(0.000000, 27.900000)">
                <mask id="mask-2" fill="white">
                    <use xlink:href="#path-1"></use>
                </mask>
                <g id="Clip-2"></g>
                <path d="M0.114848138,3.67429096 L4.91789029,0.462136755 C5.52463248,0.0433438919 6.42674145,-0.105849638 7.24786336,0.0766630186 L17.987993,2.1817464 C19.205404,2.45241195 20.5391796,2.31369015 21.5824968,1.80781061 L21.8243253,1.69060344 C22.8390988,1.19862273 24.1923189,1.17931668 25.2364289,1.64201463 L29.7859004,3.61686783 C30.1187213,3.7643478 29.9611269,4.11654049 29.5641205,4.11250412 L0.390694961,4.13333333 C0.0421674468,4.12975391 -0.130000841,3.84328558 0.114848138,3.67429096" id="Fill-1" fill="#597EF7" mask="url(#mask-2)"></path>
            </g>
            <g id="编组" transform="translate(8.266667, 0.000000)">
                <mask id="mask-4" fill="white">
                    <use xlink:href="#path-3"></use>
                </mask>
                <g id="Clip-4"></g>
                <path d="M11.1991014,18.9247785 C11.2920397,18.9247785 11.4596049,18.8881061 11.7017971,18.8140765 C11.8318329,18.7846632 11.9156156,18.7698025 11.953145,18.7698025 C12.2324348,18.7846632 12.3812569,18.9026587 12.4,19.1240628 C12.3812569,19.4340491 11.9623006,19.6039543 11.1432608,19.6333333 C9.98861537,19.5890594 9.37419512,19.0797546 9.3,18.1054874 C9.41172455,17.1312203 10.0261448,16.6073972 11.1432608,16.5333333 C11.9623006,16.563089 12.3812569,16.7326176 12.4,17.0426381 C12.3624706,17.2938322 12.2324348,17.4266883 12.0089857,17.4412066 C11.9343587,17.4412066 11.8226773,17.4190525 11.6738552,17.3747785 C11.4687605,17.3159863 11.3107828,17.2861963 11.1991014,17.2861963 C10.6588763,17.3159863 10.3704309,17.5889235 10.3333333,18.1054874 C10.3892172,18.6223938 10.6776194,18.8953995 11.1991014,18.9247785 M9.22051345,17.2521623 L8.37262961,19.2514609 C8.26663389,19.5062625 8.07209671,19.6333333 7.78975557,19.6333333 C7.50696373,19.6333333 7.32148146,19.5136617 7.23334972,19.2739015 L6.72988028,17.9485507 L6.70341208,17.9485507 L6.19998361,19.2739015 C6.12918322,19.5136617 5.94370095,19.6333333 5.64357777,19.6333333 C5.3608269,19.6333333 5.16665847,19.5062625 5.06066275,19.2514609 L4.23928808,17.2746029 C4.16852867,17.1099806 4.13333333,16.975198 4.13333333,16.8702551 C4.15070565,16.6607168 4.30967875,16.5484095 4.61025263,16.5333333 C4.85739843,16.5484095 5.01637153,16.6607168 5.08717192,16.8702551 L5.64357777,18.4427305 L6.22649278,16.8927305 C6.29688345,16.6533524 6.46495243,16.5333333 6.72988028,16.5333333 C6.95924405,16.5333333 7.11821714,16.6533524 7.20684055,16.8927305 L7.78975557,18.4427305 L8.37262961,16.8702551 C8.44302028,16.6456406 8.59330722,16.5333333 8.82303973,16.5333333 C9.12320389,16.5484095 9.28217699,16.6831921 9.3,16.9376464 C9.3,17.0127495 9.27349083,17.1173797 9.22051345,17.2521623 M4.08124637,17.162018 C4.08124637,17.147261 4.07230337,17.1546569 4.05518275,17.1844835 L3.09131213,19.3175878 C3.02174199,19.5421379 2.84791737,19.6467219 2.57032166,19.6319649 C2.30980629,19.6467219 2.13602195,19.5421379 2.0493312,19.3175878 L1.08546058,17.1844835 C1.05045395,17.109726 1.03333333,17.0272949 1.03333333,16.9374679 C1.05045395,16.683126 1.21569812,16.5484029 1.52830046,16.5333333 C1.73668858,16.5333333 1.87550658,16.630834 1.945117,16.8252103 L2.57032166,18.464353 L3.19552633,16.8252103 C3.28221708,16.630834 3.42103508,16.5333333 3.61234287,16.5333333 C3.94202554,16.5484029 4.11585016,16.683126 4.13333333,16.9374679 C4.13333333,16.9974683 4.11585016,17.0721911 4.08124637,17.162018 M12.9617622,11.4296699 L8.23430056,11.4296699 L8.23430056,10.5564676 C8.23430056,10.3104847 8.02209354,10.1092259 7.7627294,10.1092259 L7.48748903,10.1092259 L7.57229324,3.85525807 C7.57964189,3.642371 7.57543705,2.36120972 6.49219879,1.32185716 C5.48189687,0.352535194 3.89977562,-0.0872898006 1.78965186,0.0143086178 C1.35612077,0.03525444 1.02256277,0.385482003 1.04460872,0.796646256 C1.06665467,1.20781051 1.43613068,1.52430859 1.86946528,1.50325096 C3.47544017,1.42561724 4.68112974,1.71960416 5.35641965,2.35297302 C6.00899554,2.96494882 6.00384756,3.72235273 6.00176478,3.794545 C6.00054656,3.80904309 6.00086094,3.8112793 6.00062515,3.82790178 L5.91546726,10.1092259 L5.53895699,10.1092259 C5.27963214,10.1092259 5.06738582,10.3104847 5.06738582,10.5564676 L5.06738582,11.4296699 L0.471571163,11.4296699 C0.212207023,11.4296699 1.87208293e-13,11.6308914 1.87208293e-13,11.8769116 L1.87208293e-13,23.8344044 C1.87208293e-13,24.0803874 0.212207023,24.2816462 0.471571163,24.2816462 L2.00504199,24.2816462 L2.00504199,30.2545971 C2.00504199,30.6662831 2.35691267,31 2.79099393,31 C3.22507518,31 3.57694586,30.6662831 3.57694586,30.2545971 L3.57694586,24.2816462 L5.95307506,24.2816462 L5.95307506,30.2545971 C5.95307506,30.6662831 6.30494574,31 6.739027,31 C7.17306896,31 7.52497894,30.6662831 7.52497894,30.2545971 L7.52497894,24.2816462 L9.90106884,24.2816462 L9.90106884,30.2545971 C9.90106884,30.6662831 10.2529395,31 10.6870208,31 C11.121102,31 11.4729727,30.6662831 11.4729727,30.2545971 L11.4729727,24.2816462 L12.9617622,24.2816462 C13.2211263,24.2816462 13.4333333,24.0803874 13.4333333,23.8344044 L13.4333333,11.8769116 C13.4333333,11.6308914 13.2211263,11.4296699 12.9617622,11.4296699" id="Fill-3" fill="#597EF7" mask="url(#mask-4)"></path>
            </g>
        </g>
    </g>
</svg>