<?xml version="1.0" encoding="UTF-8"?>
<svg width="44px" height="44px" viewBox="0 0 44 44" version="1.1" xmlns="http://www.w3.org/2000/svg" xmlns:xlink="http://www.w3.org/1999/xlink">
    <title>Soil Temperature</title>
    <g id="Soil-Temperature" stroke="none" stroke-width="1" fill="none" fill-rule="evenodd">
        <path d="M24.7525661,36.5825948 L22.3909156,36.1236617 L22.3909156,30.7930456 L24.7525661,30.7930456 L24.7525661,36.5825948 Z M20.8285899,35.8200237 L18.4669394,35.3610515 L18.4669394,30.7930456 L20.8285899,30.7930456 L20.8285899,35.8200237 Z M25.5020212,27.1274276 C25.1847496,27.4039706 24.8245153,27.6027109 24.4212805,27.7235758 C24.0179698,27.8444771 23.6252386,27.9085071 23.2430869,27.915884 C22.6887812,27.9304925 22.2225243,27.8673346 21.8441266,27.7263739 C21.4657289,27.5853043 21.1465234,27.4149088 20.8866618,27.2153326 C20.6266864,27.0156839 20.390714,26.7785691 20.178555,26.5038068 C19.9664339,26.2290807 19.7895778,25.8729181 19.6482143,25.435137 C19.506737,24.9974287 19.4398852,24.4910025 19.4475828,23.9158948 C19.4475828,23.5386553 19.4857297,23.1641049 19.5622131,22.7922799 C19.6386586,22.4205276 19.7676225,22.0596771 19.9492185,21.7098375 C20.1307007,21.3600706 20.390714,21.0331612 20.728993,20.7291092 C21.067234,20.4250936 21.4418018,20.1943019 21.8527343,20.0367705 C22.263591,19.8793118 22.6887812,19.7932237 23.1283807,19.7785426 C23.5908078,19.7675681 23.9816809,19.8188794 24.3008864,19.9324037 C24.6199781,20.0459644 24.9582571,20.2135255 25.3156853,20.4351233 C25.6730756,20.6567938 25.9272114,20.8766109 26.0782065,21.0945021 C26.2292015,21.312466 26.3056091,21.5001954 26.3075809,21.6576541 C26.3094769,21.8151855 26.2549867,21.9598528 26.1441862,22.0917285 C26.033272,22.2235679 25.8575156,22.2694283 25.6166516,22.2290915 C25.4713823,22.2071062 25.3146994,22.1210908 25.1465648,21.9708273 L24.7165209,21.5642255 C24.5521782,21.4250818 24.3352793,21.2886636 24.0658241,21.1548982 C23.7963309,21.0212418 23.4551701,20.9635348 23.0424175,20.9818499 C22.4957714,21.0112121 22.049536,21.1695793 21.7036352,21.4570969 C21.3576966,21.744687 21.1188423,22.0377281 20.9869586,22.3362565 C20.8551129,22.6348212 20.7681258,22.9535179 20.7261111,23.292274 C20.6840206,23.6311028 20.6725689,23.9562679 20.6917182,24.2675514 C20.7146215,24.7071131 20.8035046,25.0991064 20.9583295,25.4433498 C21.1131165,25.7877385 21.3816237,26.0926625 21.7638512,26.3581947 C22.1460029,26.6238359 22.6391067,26.7547305 23.2430869,26.7510602 C23.6788187,26.7510602 24.0208137,26.6823787 24.2693375,26.5450157 C24.5177853,26.4076527 24.714587,26.258443 24.8598941,26.097205 C25.0050875,25.936076 25.1159259,25.7895191 25.1924093,25.6576797 L25.387353,25.289525 C25.4561767,25.1686601 25.5354661,25.0771211 25.6253351,25.0147989 C25.7150524,24.9525859 25.8059073,24.9141024 25.8976343,24.8994213 C26.0543172,24.8811426 26.1966287,24.9131576 26.3247584,24.9955754 C26.4527743,25.0779932 26.5292198,25.2126308 26.5540949,25.399379 C26.5789321,25.5862364 26.5072644,25.820662 26.3390919,26.1026922 C26.0983037,26.5092577 25.819217,26.8508846 25.5020212,27.1274276 Z M17.6863173,19.8316356 C17.5539063,19.9061738 17.4113703,19.9421586 17.2585467,19.9395382 C17.105696,19.9395382 16.962429,19.9029307 16.8287727,19.8296639 C16.6950351,19.7565008 16.591375,19.657082 16.517684,19.5315631 C16.443993,19.4060184 16.4071475,19.2687208 16.4071475,19.1196445 C16.4071475,18.9758608 16.4453195,18.8385633 16.5217719,18.7077777 C16.5981431,18.5770441 16.7045646,18.4770026 16.8410365,18.4076793 C16.9774542,18.3384338 17.1166333,18.302423 17.2585467,18.2997767 C17.3977258,18.2997767 17.536201,18.3351129 17.6740265,18.4057075 C17.8117978,18.4763021 17.9203039,18.5776927 17.9994365,18.7097236 C18.078569,18.8418063 18.1181489,18.9784553 18.1181489,19.1196445 C18.1154145,19.2661523 18.0758347,19.4027753 17.9994365,19.5295914 C17.9230382,19.6564593 17.8186471,19.7570975 17.6863173,19.8316356 Z M37.3130004,38.12379 L32.6066506,36.0980786 C31.5265368,35.6235612 30.1266539,35.6433247 29.0768882,36.1479949 L28.8267208,36.2682159 C28.0857098,36.6244652 27.2029958,36.8031171 26.3148918,36.790306 L26.3148918,30.7930456 L27.7945704,30.7930456 C28.0523541,30.7930456 28.2632681,30.5821316 28.2632681,30.3243479 L28.2632681,17.7931681 C28.2632681,17.5353844 28.0523541,17.3244704 27.7945704,17.3244704 L23.0959541,17.3244704 L23.0959541,16.4093772 C23.0959541,16.1516326 22.8850011,15.9406795 22.6272564,15.9406795 L22.3536541,15.9406795 L22.4379416,9.38676245 C22.4452845,9.16362329 22.4410662,7.82099968 21.3644676,6.73178529 C20.3603219,5.71596114 18.787802,5.25503601 16.6905751,5.36154757 C16.2596467,5.38342013 15.9281602,5.7505276 15.9500718,6.18137796 C15.9719444,6.61222831 16.339169,6.94394911 16.7699022,6.92188126 C18.3660522,6.84048409 19.5643951,7.14861377 20.2356092,7.81236783 C20.8842087,8.45370251 20.8790921,9.24744206 20.877022,9.32313674 C20.8758112,9.3382913 20.8761237,9.34067384 20.8758893,9.35805472 L20.7912113,15.9406795 L20.4170343,15.9406795 C20.1592506,15.9406795 19.9483366,16.1516326 19.9483366,16.4093772 L19.9483366,17.3244704 L15.380526,17.3244704 C15.1227032,17.3244704 14.9118283,17.5353844 14.9118283,17.7931681 L14.9118283,30.3243479 C14.9118283,30.5821316 15.1227032,30.7930456 15.380526,30.7930456 L16.9046137,30.7930456 L16.9046137,35.0574525 L13.9977897,34.4925546 C13.1483142,34.3053099 12.215137,34.4583397 11.5874727,34.8879011 L6.61880842,38.1826507 C6.36551637,38.3559907 6.5436215,38.6498251 6.9041672,38.6534575 L37.0835729,38.6321318 C37.4942693,38.6362719 37.6572979,38.2750622 37.3130004,38.12379 L37.3130004,38.12379 Z" id="Fill-1" fill="#597EF7"></path>
    </g>
</svg>