<?xml version="1.0" encoding="UTF-8"?>
<svg width="44px" height="44px" viewBox="0 0 44 44" version="1.1" xmlns="http://www.w3.org/2000/svg" xmlns:xlink="http://www.w3.org/1999/xlink">
    <title>rainfall hourly备份</title>
    <g id="rainfall-hourly备份" stroke="none" stroke-width="1" fill="none" fill-rule="evenodd">
        <g id="编组" transform="translate(11.000000, 9.565217)" fill="#597EF7" fill-rule="nonzero">
            <path d="M21.6845677,2.86866651 C21.6845677,2.82802207 21.6798177,2.78752736 21.670653,2.74801082 C21.670653,2.73073746 21.670653,2.7134641 21.670653,2.69644856 C21.670653,2.18701339 21.3026589,1.7451248 20.5773553,1.38315771 C20.0195249,1.1049793 19.2355807,0.85799606 18.2451523,0.649426705 C16.2610653,0.230483317 13.6291994,2.20886111e-14 10.8355751,2.20886111e-14 C8.04195076,2.20886111e-14 5.40983636,0.230483317 3.42525241,0.648911083 C2.43556944,0.857480437 1.6508798,1.10446368 1.09329793,1.38264209 C0.36700034,1.74357793 -2.54714124e-13,2.18649777 -2.54714124e-13,2.69593293 L-2.54714124e-13,20.8334746 C-2.54714124e-13,20.9002151 0.0124908952,20.9663205 0.0367747142,21.0281222 C0.0123280444,21.1167338 -2.54714124e-13,21.2084583 -2.54714124e-13,21.3006288 C-2.54714124e-13,21.8100639 0.367994247,22.2519525 1.09329793,22.6139196 C1.6508798,22.892098 2.43507248,23.1390812 3.42525241,23.3476506 C5.40983636,23.7660784 8.04145381,23.9965617 10.8355751,23.9965617 C13.6296963,23.9965617 16.2610653,23.7660784 18.2456493,23.3476506 C19.2353322,23.1390812 20.0200219,22.892098 20.5778522,22.6139196 C21.3039013,22.2529838 21.67115,21.8100639 21.67115,21.3006288 C21.6711817,21.2532697 21.6679432,21.2059691 21.6614594,21.1590903 C21.6763853,21.1095229 21.6839266,21.0578807 21.6838223,21.0059504 L21.6845677,2.86866651 Z M20.6906607,20.0456033 C20.6543831,20.025494 20.6167802,20.0059863 20.5778522,19.9870801 C20.0200219,19.7089017 19.2360777,19.4621763 18.2456493,19.2533491 C16.2792041,18.8387885 13.6776524,18.6088208 10.9121059,18.6046958 C10.8644732,18.4896581 10.8087468,18.378413 10.745378,18.2718614 L8.70488678,14.8372991 L8.70488678,14.8372991 C8.69170353,14.8160416 8.67381279,14.7983627 8.65270666,14.7857368 C8.58093094,14.7413471 8.48814865,14.7641865 8.44324075,14.8372991 L6.40274952,18.2718614 C6.29726904,18.4489018 6.21330853,18.6388048 6.15278189,18.8372416 C5.15738396,18.9424286 4.23702601,19.0821624 3.42525241,19.2533491 C2.43556944,19.4621763 1.6508798,19.7089017 1.09329793,19.9870801 C1.05875966,20.0040956 1.02546378,20.0216268 0.993907226,20.0386424 L0.993907226,3.95766151 C1.0048402,3.96359117 1.01577318,3.96952083 1.02695464,3.97519268 L10.8914823,14.2103019 C10.9847591,14.3069753 11.111237,14.3612291 11.243077,14.3611216 L11.2507798,14.3611216 C11.385201,14.3589374 11.5130343,14.3003396 11.6051076,14.1987004 L20.6914061,4.16984023 L20.6906607,20.0456033 Z M3.84865682,1.61338322 C5.74279523,1.23800994 8.22433271,1.03124526 10.836072,1.03124526 C13.4478113,1.03124526 15.9298458,1.23749432 17.8232388,1.61338322 C20.1544478,2.07563891 20.5992212,2.58275377 20.6687947,2.68922984 L20.5211995,2.85190878 C20.2560748,3.06125157 19.5677941,3.43249986 17.8227418,3.77848265 C15.9286034,4.15411374 13.4470659,4.36087841 10.8355751,4.36087841 C8.22408424,4.36087841 5.74180132,4.15462936 3.84815987,3.77848265 C2.71286951,3.55341337 2.02508582,3.31777383 1.61012961,3.12286847 L1.09404336,2.58739437 C1.31071511,2.39068433 1.96197272,1.98746744 3.84815987,1.61338322 L3.84865682,1.61338322 Z M17.8227418,22.3831785 C15.9286034,22.7585517 13.4470659,22.9653164 10.8355751,22.9653164 C8.22408424,22.9653164 5.74180132,22.7590674 3.84815987,22.3831785 C1.46278289,21.9100947 1.05254774,21.3903471 0.998379808,21.3003709 C1.05254774,21.2106526 1.46278289,20.6906472 3.84815987,20.2175634 C4.5173078,20.0847906 5.25975639,19.9734161 6.05513052,19.8844712 C6.09610815,20.25319 6.21487922,20.6080129 6.402998,20.9237086 C7.12531997,22.1398046 8.68302083,22.5316778 9.88167276,21.8002671 C10.6269169,21.351225 11.0920488,20.5309814 11.1084026,19.6369723 C13.6180179,19.6508941 15.9942013,19.8561119 17.8222448,20.2185947 C20.2076218,20.6914206 20.617857,21.211426 20.6720249,21.3014022 C20.6183539,21.3903471 20.2081188,21.9100947 17.8227418,22.3831785 Z" id="形状"></path>
            <path d="M4.95318406,8.54383738 L4.95318406,8.54383738 C4.94411947,8.52845925 4.93147357,8.5156929 4.9164095,8.50671255 C4.86564438,8.47554044 4.80018576,8.49200533 4.7688143,8.54383738 L3.33112771,10.9646856 C2.98948166,11.5373092 2.98948166,12.2611941 3.33112771,12.8338177 C3.84000813,13.6894934 4.93852393,13.9656094 5.78334494,13.4494711 C6.62816595,12.9333329 6.9014904,11.8206192 6.39161607,10.9636544 L4.95318406,8.54383738 Z" id="路径"></path>
            <path d="M19.772587,18.3816594 C20.7697243,17.7724513 21.0910047,16.4591604 20.4904364,15.4482822 L18.793837,12.5922485 L18.793837,12.5922485 C18.7830851,12.5740436 18.7681432,12.5588948 18.7503536,12.5481627 C18.6904085,12.5117552 18.6134351,12.5312651 18.5764198,12.5922485 L16.879572,15.4482822 C16.4765661,16.1240184 16.4765661,16.9781219 16.879572,17.6538581 C17.4801403,18.6647362 18.7754497,18.9906097 19.772587,18.3816594 Z" id="路径"></path>
        </g>
    </g>
</svg>