<?xml version="1.0" encoding="UTF-8"?>
<svg width="44px" height="44px" viewBox="0 0 44 44" version="1.1" xmlns="http://www.w3.org/2000/svg" xmlns:xlink="http://www.w3.org/1999/xlink">
    <title>距离</title>
    <defs>
        <polygon id="path-1" points="0 0.011031435 23.8747516 0.011031435 23.8747516 6.95407226 0 6.95407226"></polygon>
        <polygon id="path-3" points="0.00716227802 0.0164482547 4.73135089 0.0164482547 4.73135089 5.81959657 0.00716227802 5.81959657"></polygon>
        <polygon id="path-5" points="0.0205290876 0.02517624 4.01404042 0.02517624 4.01404042 15.6985308 0.0205290876 15.6985308"></polygon>
    </defs>
    <g id="距离" stroke="none" stroke-width="1" fill="none" fill-rule="evenodd">
        <g transform="translate(7.000000, 10.571429)">
            <g>
                <g id="编组" transform="translate(0.000000, 15.848830)">
                    <mask id="mask-2" fill="white">
                        <use xlink:href="#path-1"></use>
                    </mask>
                    <g id="Clip-2"></g>
                    <path d="M22.2322939,0.384060502 C22.0404948,0.0410206981 21.6119657,-0.0874422535 21.2564752,0.0918229026 C21.2261604,0.107146846 21.1956375,0.121887814 21.1652811,0.137045193 C21.1591598,0.140168279 21.1532884,0.143582854 21.1471255,0.146622658 C21.1194758,0.160364238 21.0916595,0.173564483 21.0639682,0.18722278 C21.0178298,0.209917208 20.9716497,0.232528353 20.9253448,0.254889651 C20.8828291,0.275418739 20.8401886,0.295697979 20.7975897,0.315893938 C20.7470374,0.339879241 20.696485,0.363822903 20.6458077,0.387350153 C20.6071231,0.405380772 20.5683135,0.423078261 20.529504,0.440817391 C20.4749541,0.465843723 20.4202792,0.490703491 20.3655628,0.515146846 C20.3305009,0.53084556 20.2953974,0.546294427 20.2603356,0.561784936 C20.2016632,0.587560808 20.1430325,0.613253399 20.0842768,0.638487936 C20.0528377,0.652062952 20.0213154,0.665346479 19.989793,0.678630006 C19.9274979,0.705072137 19.8651194,0.731347704 19.8025744,0.757165217 C19.7742584,0.76882474 19.7457759,0.78040098 19.7173766,0.791935579 C19.6517085,0.818710839 19.5859988,0.845194611 19.5201641,0.871261972 C19.4946797,0.88133913 19.4691537,0.891249724 19.443586,0.90120196 C19.3748781,0.928060502 19.306087,0.954710839 19.2370876,0.980819841 C19.2141433,0.989522841 19.1911157,0.998059277 19.1680882,1.00663735 C19.096507,1.0334959 19.0248843,1.06002131 18.9530533,1.08600539 C18.9325658,1.09341751 18.9119951,1.10066307 18.8914244,1.1080752 C18.8171782,1.13464225 18.7428487,1.1610011 18.6683527,1.18669369 C18.6499473,1.19310643 18.631417,1.19931096 18.61297,1.20559878 C18.5364336,1.23179106 18.4597722,1.25769186 18.3829859,1.28300968 C18.3662462,1.28850631 18.3495064,1.29383637 18.332725,1.29929137 C18.2542315,1.32494231 18.1755713,1.35017685 18.0967446,1.3749117 C18.081504,1.37965879 18.0662217,1.38428096 18.050981,1.38902805 C17.9706552,1.41392945 17.8902462,1.43849773 17.8096289,1.4624414 C17.7957624,1.46656387 17.7818126,1.47056142 17.7679461,1.47464225 C17.6859963,1.49879412 17.6039633,1.52252958 17.5217636,1.54568206 C17.5087716,1.5492632 17.4958212,1.55276105 17.4828708,1.55642547 C17.3997551,1.5796196 17.3165144,1.60239731 17.2331488,1.62450876 C17.2206981,1.62784005 17.2082474,1.63096314 17.1957967,1.63425279 C17.1118898,1.65636424 17.0278996,1.67805928 16.9436595,1.69908806 C16.9314587,1.70212786 16.9192162,1.70504274 16.9070153,1.70804091 C16.8225671,1.72902805 16.7380355,1.74955713 16.6532541,1.76941996 C16.6410949,1.77225156 16.6288941,1.77495824 16.6166932,1.77778983 C16.5319118,1.7974861 16.4470472,1.81676595 16.3620159,1.83542119 C16.3495236,1.8381695 16.3369479,1.84070961 16.324414,1.84345793 C16.2396742,1.86182168 16.1548096,1.8798523 16.0697783,1.89717502 C16.0567446,1.89984005 16.0436693,1.90233852 16.030594,1.90492027 C15.9461041,1.92199314 15.8615726,1.93869124 15.7768328,1.95468145 C15.7625915,1.95730484 15.7483503,1.95984495 15.7341506,1.96246834 C15.6504103,1.97808377 15.5666699,1.99332443 15.4827214,2.00794048 C15.4673141,2.01060551 15.4518653,2.01306234 15.4364997,2.01572737 C15.3536338,2.02984372 15.2707679,2.04375187 15.1877355,2.05695211 C15.1707042,2.05965879 15.1535897,2.06215726 15.1365585,2.06478065 C15.0550667,2.07752284 14.9735334,2.09001519 14.8918334,2.10175799 C14.8726785,2.10450631 14.8534403,2.10696314 14.8342437,2.10971145 C14.7545426,2.12095456 14.6747998,2.13203111 14.5948904,2.14231647 C14.5732786,2.14510643 14.5515836,2.14756326 14.5299302,2.15031157 C14.4523527,2.1600556 14.3747336,2.16971635 14.2969479,2.17862756 C14.2724213,2.18145915 14.2478114,2.18391598 14.2232431,2.18662266 C14.1482474,2.19495089 14.07321,2.20319584 13.9980478,2.21069124 C13.96994,2.21352284 13.9417906,2.21589639 13.9136828,2.2186447 C13.8418518,2.22547385 13.7700208,2.23238628 13.6980233,2.23854917 C13.6660012,2.24133913 13.6338543,2.24354611 13.6017906,2.2461695 C13.5335407,2.25166614 13.4653325,2.25724605 13.3969577,2.26215971 C13.3606883,2.26474146 13.3242939,2.26678187 13.2879829,2.26915542 C13.223564,2.27340282 13.1591451,2.27785842 13.0946013,2.2814812 C13.053335,2.2838131 13.0119853,2.28556203 12.9706773,2.28768573 C12.9109639,2.29072554 12.8512505,2.29397355 12.7914121,2.2965553 C12.7416926,2.298679 12.6918898,2.30013644 12.642087,2.30184372 C12.5904519,2.30371758 12.5388585,2.30584127 12.4871402,2.30734036 C12.425553,2.30908928 12.3638408,2.31004703 12.3021702,2.31125462 C12.2619032,2.31208745 12.2217612,2.3132534 12.1814525,2.31383637 C12.0793484,2.31525217 11.9771194,2.31600171 11.8747655,2.31600171 C11.7739522,2.31600171 11.6732223,2.31525217 11.5727006,2.31387802 C11.5323503,2.31329504 11.4921249,2.31217073 11.4518163,2.31133791 C11.3917697,2.31021359 11.3316816,2.30921421 11.2717183,2.30754856 C11.2212909,2.30613276 11.1709884,2.30409235 11.1206026,2.30230178 C11.071008,2.30059449 11.0213717,2.29913705 10.9718187,2.29709663 C10.9151035,2.29472309 10.8584715,2.29168328 10.8018396,2.28881004 C10.7589492,2.28668634 10.7160171,2.28485413 10.6731684,2.28248059 C10.6111231,2.27898273 10.5492027,2.27481862 10.487199,2.27077942 C10.4500551,2.26840588 10.4128279,2.26628218 10.3757257,2.26370043 C10.3095162,2.25903662 10.2434317,2.25370655 10.1773472,2.24845977 C10.1446589,2.24587802 10.1118873,2.24354611 10.079199,2.24083944 C10.0095334,2.23492639 9.93999265,2.22838873 9.87045193,2.22180943 C9.84159461,2.21906111 9.81269565,2.21664593 9.78387998,2.21377269 C9.71092468,2.20661041 9.63817759,2.19874023 9.56538885,2.19082841 C9.54015432,2.18803846 9.5148365,2.18553999 9.4896436,2.18266675 C9.41452296,2.17421359 9.33952725,2.16505254 9.26457318,2.15576656 C9.24175383,2.15293497 9.21889284,2.15035321 9.19607348,2.14747998 C9.11895407,2.13761102 9.04200122,2.12711745 8.96509002,2.11649896 C8.94464421,2.11362572 8.92415677,2.11104397 8.90371096,2.10808745 C8.8247177,2.09692762 8.745891,2.08505989 8.66710594,2.07298396 C8.64886712,2.07015236 8.63062829,2.06757061 8.61238947,2.06465573 C8.53206369,2.05216338 8.45186283,2.03887985 8.37170361,2.02538812 C8.35508879,2.0226398 8.33847397,2.02001641 8.32185915,2.01718481 C8.24028414,2.00319339 8.15887569,1.98861898 8.07755052,1.97366981 C8.06251806,1.97092149 8.04748561,1.96833974 8.03249479,1.96554979 C7.95021188,1.95026748 7.86813717,1.93431892 7.78614574,1.91812051 C7.77198775,1.91524727 7.75778812,1.91258224 7.74367177,1.90979228 C7.66109737,1.89321911 7.57873117,1.87597967 7.49640661,1.85844874 C7.48287324,1.85557551 7.46933987,1.85278555 7.45580649,1.84987067 C7.37306552,1.83204825 7.29044948,1.81360122 7.20791672,1.79473778 C7.19492468,1.79178126 7.18193264,1.78886638 7.1689406,1.78590986 C7.08624127,1.76683821 7.00370851,1.74714195 6.92125903,1.72707091 C6.9084752,1.72394783 6.89564972,1.72090802 6.88286589,1.71774329 C6.80049969,1.69754734 6.7183417,1.67664348 6.63626699,1.65540649 C6.62335824,1.6520752 6.61044948,1.64882719 6.59754072,1.6454959 C6.51604899,1.62417563 6.43472382,1.60231402 6.35348194,1.58003601 C6.33994856,1.5762883 6.3263319,1.57270716 6.31279853,1.56895946 C6.23226454,1.54668145 6.15185548,1.52382045 6.07161298,1.50054305 C6.05745499,1.49646222 6.043297,1.49242303 6.02913901,1.48830055 C5.94977097,1.46510643 5.8705695,1.44137097 5.79149296,1.41721911 C5.77633558,1.4125553 5.7611782,1.40805805 5.74606246,1.40339424 C5.66819351,1.37945058 5.59049112,1.3548823 5.51287201,1.33002254 C5.49650704,1.32473411 5.48010043,1.31957061 5.4637771,1.31428218 C5.38774036,1.28967226 5.31187018,1.264521 5.23608328,1.23899498 C5.21805266,1.23295701 5.1999804,1.22691904 5.18190814,1.2207978 C5.10795346,1.19564654 5.03416534,1.17003723 4.9604605,1.14405315 C4.94059767,1.13705744 4.92077648,1.13010337 4.9009553,1.12306601 C4.8294158,1.09762327 4.75800122,1.07168083 4.68666993,1.04536363 C4.66455848,1.0372436 4.64240539,1.02916522 4.62033558,1.02092027 C4.55158604,0.995352603 4.48296142,0.969285242 4.41446173,0.942968034 C4.38972688,0.933432211 4.36499204,0.923979669 4.34029884,0.914318922 C4.27450582,0.888792897 4.20883772,0.862767177 4.14329455,0.836491611 C4.11581139,0.825539988 4.08841151,0.814546724 4.06101164,0.803386895 C3.99850827,0.778069075 3.93612982,0.752334844 3.87379302,0.726392407 C3.84318677,0.713608573 3.81258053,0.70082474 3.78205756,0.687915983 C3.72309369,0.663014574 3.66425475,0.637780037 3.60549908,0.612295652 C3.57156154,0.597596326 3.537624,0.582813717 3.50372811,0.567947826 C3.44863686,0.543712676 3.3936289,0.519227679 3.33870423,0.494492835 C3.30101898,0.477544887 3.26337538,0.460513656 3.22577342,0.44331586 C3.1748463,0.419996816 3.12396081,0.396511206 3.0731586,0.372817391 C3.03147581,0.353412615 2.9898763,0.333799633 2.94831843,0.314061727 C2.90180527,0.291991917 2.85533374,0.269713901 2.8089455,0.24726932 C2.78612615,0.236276056 2.76318187,0.225532639 2.74036252,0.214414452 C2.73415799,0.211416289 2.72820331,0.207960073 2.72204042,0.204878628 C2.68373056,0.18614011 2.64529577,0.167818004 2.6070692,0.148787998 C2.50359094,0.0973611758 2.39349173,0.07291782 2.28476669,0.07291782 C2.02592529,0.07291782 1.77487079,0.21145793 1.63899571,0.454642254 L0.0935260257,3.22007275 C-0.00478873239,3.39596497 -0.026442131,3.59896558 0.0325633803,3.79168083 C0.0921518677,3.9864365 0.225611758,4.14446467 0.408291488,4.23661653 C2.14976607,5.11487006 3.99301164,5.7913722 5.88685119,6.24717624 C7.8359902,6.71618053 9.85063074,6.95407642 11.8747655,6.95407642 C13.9236767,6.95407642 15.9623025,6.71035077 17.9340527,6.22968696 C19.8492125,5.76276473 21.7114881,5.0701891 23.4692027,4.17103172 C23.6512162,4.07800539 23.7839682,3.91956081 23.8428904,3.72501335 C23.9009798,3.53317257 23.8791598,3.33104642 23.7813448,3.15598702 L22.2322939,0.384060502 Z" id="Fill-1" fill="#597EF7" mask="url(#mask-2)"></path>
                </g>
                <path d="M3.28235542,14.9308762 C3.30517477,14.9420776 3.32799412,14.9532375 3.35085511,14.964314 C3.39707679,14.9866753 3.44338175,15.0088701 3.48972835,15.0308566 C3.526206,15.0481793 3.56276693,15.0653771 3.5993695,15.0824916 C3.64950545,15.1058939 3.69972468,15.1290881 3.75002719,15.152074 C3.78304862,15.1671897 3.8161117,15.1820972 3.84917477,15.1970048 C3.90285021,15.2211566 3.9565673,15.2451419 4.01040931,15.2687525 C4.04039094,15.2819527 4.07041421,15.2949864 4.10043748,15.3080201 C4.15740257,15.3326716 4.21436767,15.357115 4.27145769,15.3812669 C4.29860772,15.3927182 4.32575775,15.4040446 4.35290778,15.415371 C4.41287103,15.4403557 4.47291758,15.4651321 4.53308904,15.4895339 C4.55757404,15.4994445 4.58210067,15.5092718 4.60662731,15.5190574 C4.66929724,15.5442087 4.73205046,15.5690685 4.7949286,15.5935118 C4.8172899,15.6021732 4.83969284,15.6107513 4.86209577,15.6193293 C4.92713925,15.6443973 4.99226601,15.6691321 5.05755934,15.6934089 C5.07783858,15.700946 5.0982011,15.7083998 5.11852198,15.7158952 C5.18589737,15.7407133 5.25339767,15.7652399 5.32098126,15.7893085 C5.33934501,15.7958045 5.35770876,15.8022589 5.3760725,15.8087133 C5.44557159,15.8331983 5.51515395,15.8573918 5.58486124,15.881044 C5.60164262,15.8867488 5.61850729,15.8923704 5.63533031,15.8980336 C5.70657832,15.9220189 5.77795126,15.9456294 5.84944911,15.9688235 C5.86489798,15.9737788 5.88038849,15.9786508 5.89579571,15.9836061 C5.96862609,16.0069668 6.0414981,16.030036 6.11457832,16.0525222 C6.1290278,16.0569362 6.14351892,16.0612669 6.1579684,16.0656808 C6.23208965,16.088292 6.30629418,16.11057 6.38062364,16.1323067 C6.39411537,16.1361793 6.4076071,16.1400103 6.42109884,16.1439246 C6.4963444,16.1657029 6.5716316,16.1871481 6.64708536,16.2080103 C6.66016069,16.2116331 6.67327765,16.2151309 6.68635297,16.2187121 C6.76226479,16.2395326 6.83825989,16.2599784 6.91437991,16.2798413 C6.92720539,16.2832142 6.9400725,16.2864206 6.95289798,16.2897519 C7.02930949,16.3094898 7.10584593,16.3289362 7.18250729,16.347758 C7.19524948,16.3509227 7.20803331,16.3539209 7.22077551,16.3570023 C7.29756179,16.3756992 7.37438971,16.394063 7.4513842,16.4118021 C7.4643346,16.4148002 7.477285,16.4176318 7.49019375,16.4205884 C7.56706332,16.4381609 7.64401617,16.4553171 7.72109394,16.4719319 C7.73441911,16.4748468 7.74774427,16.4775535 7.76106944,16.4803851 C7.83777244,16.49675 7.91460037,16.5127402 7.99155321,16.5281891 C8.00566957,16.5310623 8.01978592,16.5336857 8.03386062,16.5365173 C8.11010557,16.5516331 8.1864338,16.5664157 8.26284532,16.5805737 C8.27796105,16.5834469 8.29307679,16.5860287 8.30819253,16.588777 C8.38372958,16.6026018 8.45930827,16.6162185 8.53509516,16.6291273 C8.55137685,16.6319172 8.56774182,16.634499 8.58402352,16.6372889 C8.65864446,16.6497813 8.73330704,16.662107 8.80809455,16.6737666 C8.82604189,16.6765982 8.84403086,16.6791799 8.86201984,16.6819282 C8.93522498,16.6931713 9.00851341,16.7042062 9.08188512,16.7146165 C9.1019978,16.7174481 9.12215211,16.7200715 9.14222315,16.7228198 C9.21363772,16.7327304 9.2850523,16.7424328 9.35667508,16.7515522 C9.37920294,16.7543838 9.40181408,16.7570072 9.42438359,16.7597972 C9.49363282,16.7683336 9.5629237,16.7768284 9.63238114,16.784657 C9.65749075,16.7874885 9.68268365,16.789987 9.70783491,16.7927353 C9.7749188,16.8000642 9.84204434,16.8073514 9.90929479,16.8139307 C9.9370278,16.816679 9.96484409,16.8190525 9.9925771,16.8216343 C10.0572874,16.8277555 10.1220394,16.8338352 10.1868747,16.8392901 C10.2182305,16.8419968 10.2497112,16.8441622 10.2811086,16.8466606 C10.3426126,16.8515743 10.404075,16.8565296 10.4657039,16.8608603 C10.5009739,16.8632754 10.5363689,16.8653159 10.5716806,16.8676061 C10.6295201,16.8713538 10.6873181,16.8752265 10.7452409,16.8784745 C10.7857994,16.8806814 10.8264412,16.882472 10.8670413,16.8844708 C10.9200505,16.8871358 10.9729764,16.8899674 11.0260688,16.8922577 C11.0726236,16.8941315 11.1192617,16.8955057 11.1658582,16.8971297 C11.2132042,16.8987537 11.2605085,16.9007525 11.3078961,16.9020434 C11.3652776,16.9036257 11.4227841,16.9045418 11.4802489,16.9056661 C11.5170596,16.906374 11.5538704,16.9074567 11.5907228,16.9079564 C11.6852483,16.9092889 11.7799402,16.9099552 11.8747571,16.9099552 C11.9709898,16.9099552 12.0670976,16.9092889 12.1630805,16.9079564 C12.2013487,16.9073734 12.239492,16.9062491 12.2776769,16.9054996 C12.3351833,16.9043753 12.3927731,16.9034592 12.4501962,16.9018352 C12.498958,16.900461 12.5475949,16.8984206 12.5962734,16.8967133 C12.6429947,16.895006 12.6897994,16.8936735 12.7364791,16.8916747 C12.7909874,16.8893844 12.8453707,16.8863863 12.8997541,16.883638 C12.9403958,16.8815976 12.9810376,16.8798486 13.0215961,16.8775167 C13.0813095,16.8741438 13.140898,16.8700213 13.2004865,16.8661487 C13.2355067,16.8638584 13.2705685,16.861818 13.3055471,16.8593612 C13.3694246,16.8548223 13.4331356,16.8495755 13.4968882,16.844412 C13.5274111,16.8419968 13.558059,16.8397898 13.588582,16.8371664 C13.6554577,16.8315032 13.7222501,16.8250489 13.7890009,16.8186778 C13.8162342,16.8160127 13.8435091,16.8137641 13.8706592,16.8110158 C13.9407412,16.8039784 14.0106567,16.7963581 14.0805306,16.7885712 C14.1041827,16.7859478 14.1279182,16.7835743 14.1515287,16.7809092 C14.2239843,16.7726227 14.2962734,16.7635865 14.3685624,16.7545088 C14.3895912,16.7518437 14.4106616,16.7494702 14.4316487,16.7467219 C14.5058949,16.7371444 14.5800578,16.7269007 14.6540958,16.7164487 C14.6730009,16.7137837 14.6919476,16.7113685 14.710811,16.7085786 C14.7868061,16.6977102 14.8626347,16.6860507 14.9384216,16.6742663 C14.9552446,16.6716845 14.9721092,16.6692277 14.9888906,16.6665626 C15.0660933,16.6542785 15.1431295,16.6413697 15.2201239,16.6282528 C15.2354895,16.6255461 15.2508551,16.6231309 15.2662207,16.6204659 C15.3445893,16.6068492 15.4228331,16.592608 15.5009935,16.5780336 C15.5147767,16.5754518 15.5286016,16.5730366 15.5423848,16.5704549 C15.6212532,16.555589 15.6999549,16.5400568 15.7786151,16.5242332 C15.791732,16.5215265 15.8048906,16.5190697 15.8180076,16.516363 C15.8972507,16.5002479 15.9763689,16.4834249 16.0553205,16.4663103 C16.0677296,16.4636453 16.0801386,16.4610636 16.0925061,16.4583569 C16.1717908,16.4409925 16.2509506,16.4229619 16.3299855,16.4046398 C16.3420615,16.4018082 16.3541791,16.3991432 16.3662966,16.3963116 C16.4452899,16.3777813 16.5241166,16.3586263 16.6029017,16.3391383 C16.6149776,16.3361401 16.6271368,16.3332669 16.6392127,16.3302271 C16.7178312,16.3106557 16.7963248,16.2902932 16.8746934,16.2696808 C16.886811,16.2665161 16.8989702,16.2634347 16.9111295,16.2602283 C16.9890817,16.2395743 17.0668674,16.218254 17.1445281,16.196559 C17.1571454,16.1930611 17.1697626,16.1896465 17.1823383,16.1861487 C17.2592495,16.1644953 17.3360358,16.1422589 17.4127388,16.1196894 C17.4260639,16.1157751 17.4394307,16.1119442 17.4527559,16.1079882 C17.5283346,16.0855437 17.60383,16.0624745 17.6791588,16.0390721 C17.6936083,16.0346165 17.7080578,16.0302026 17.722424,16.025747 C17.7965453,16.0025528 17.8704999,15.9787341 17.9443713,15.9546655 C17.9599868,15.9495437 17.9756022,15.9445884 17.9912176,15.9394665 C18.0635483,15.9156478 18.1356291,15.8912877 18.2076683,15.8666778 C18.2249078,15.8607231 18.2421889,15.854935 18.2593867,15.8490219 C18.3297186,15.8247035 18.3999255,15.7998437 18.4700909,15.7746925 C18.4889127,15.7679882 18.5077761,15.761284 18.5265563,15.7544965 C18.5947645,15.7298449 18.6628061,15.7046104 18.7307645,15.679126 C18.7515018,15.6713808 18.7722807,15.6637188 18.793018,15.6558486 C18.858811,15.6309472 18.9245208,15.6055045 18.9901056,15.5798952 C19.0130082,15.5709007 19.0359108,15.5620311 19.0587718,15.552995 C19.1218582,15.5280936 19.184778,15.5026508 19.2475728,15.4770832 C19.2730988,15.4666729 19.2985832,15.4563459 19.324026,15.4458523 C19.3840309,15.4211175 19.4438276,15.3959662 19.5036242,15.3706067 C19.5319402,15.3585724 19.5602562,15.3466214 19.5885306,15.3345039 C19.6452874,15.3101021 19.7019611,15.2853257 19.7585514,15.260341 C19.7897406,15.2465994 19.8209715,15.2328578 19.852119,15.2189497 C19.9055446,15.1950893 19.9588453,15.1708125 20.0121043,15.1464108 C20.0464583,15.1307121 20.0808122,15.1150133 20.1150829,15.0990648 C20.1648857,15.0759123 20.2145636,15.0524683 20.2641999,15.0288994 C20.30201,15.0109521 20.3397786,14.9930048 20.3774638,14.9748076 C20.4233524,14.9526545 20.469116,14.9302099 20.5149212,14.9076821 C20.5421962,14.8942736 20.5694712,14.8806986 20.5967045,14.8671652 C20.7743873,14.776096 20.9047241,14.6215657 20.9638545,14.4304328 C21.0238594,14.23651 21.0023309,14.0320936 20.9033499,13.8549521 L19.5839084,11.4938988 C19.3941497,11.1543985 18.9675777,11.0233955 18.6130449,11.1959564 C18.5675312,11.2180679 18.5219341,11.2395963 18.4762954,11.2612081 C18.4727559,11.262957 18.4692997,11.2648725 18.4657186,11.2665798 C18.4580149,11.2702026 18.4503113,11.2737004 18.4426077,11.2773232 C18.4056304,11.2947709 18.3684865,11.3118854 18.3313842,11.3289999 C18.3044007,11.3414506 18.2774589,11.3539846 18.2504338,11.3662687 C18.208168,11.3854653 18.1658606,11.4043287 18.1235116,11.4231505 C18.1014418,11.4329362 18.0794552,11.4428051 18.0573438,11.4525075 C18.0108723,11.4728701 17.9642758,11.4928578 17.9176794,11.5128039 C17.8994822,11.5205908 17.8813683,11.5283777 17.8631295,11.5360813 C17.8130768,11.5571934 17.7628992,11.5779723 17.71268,11.5986263 C17.6978974,11.6046643 17.6830731,11.6108272 17.6682489,11.6168235 C17.6151148,11.6384353 17.561939,11.659589 17.50868,11.6805761 C17.4965208,11.6853648 17.4843615,11.6901952 17.4722023,11.6949423 C17.416653,11.7166374 17.3609788,11.737916 17.305263,11.7589448 C17.2952274,11.7627341 17.2851503,11.7665651 17.2751148,11.7703544 C17.2174834,11.7919246 17.1597271,11.8131615 17.1018876,11.8340654 C17.0936843,11.8369803 17.085481,11.8399784 17.077236,11.842935 C17.0178557,11.8642136 16.9583922,11.8852007 16.898762,11.9057715 C16.8918912,11.908145 16.8850621,11.9105186 16.8781913,11.9128505 C16.8175201,11.9337127 16.7567657,11.9542001 16.6958863,11.9742295 C16.6899317,11.9762283 16.6838937,11.9781854 16.6778557,11.9801426 C16.6161852,12.0003802 16.5543897,12.0202846 16.4924277,12.0396894 C16.4872642,12.0413134 16.4821007,12.0429374 16.4769372,12.0445614 C16.4143089,12.0641328 16.3515973,12.0833293 16.2887192,12.1021095 L16.2749359,12.1062736 C16.211683,12.1250538 16.1483468,12.1435008 16.0848441,12.1614898 C16.0804718,12.1626974 16.0760578,12.1639466 16.0717271,12.1652375 C16.0080578,12.1832265 15.9442636,12.2007574 15.8804277,12.2179552 C15.8761803,12.2190795 15.8718912,12.2202038 15.8675606,12.2213697 C15.8037247,12.2384426 15.7397639,12.2551407 15.6756781,12.2713808 C15.6711809,12.2725051 15.6666836,12.2736294 15.662228,12.2747953 C15.5984338,12.2909105 15.5345146,12.3066092 15.4705538,12.3218915 C15.4655569,12.3230991 15.4605183,12.324265 15.4554797,12.3254726 C15.3920603,12.3405467 15.3285159,12.3552461 15.2648465,12.369529 C15.2591417,12.3708198 15.2534369,12.3720691 15.247732,12.3733183 C15.1847706,12.3873514 15.1217259,12.4010097 15.0585563,12.4142516 C15.051977,12.4156674 15.0453144,12.4169582 15.0387351,12.418374 C14.9764816,12.4313244 14.9141864,12.4439417 14.8517663,12.4561009 C14.8439794,12.4576 14.8361509,12.4590991 14.828364,12.4606398 C14.7669849,12.4725075 14.7055226,12.4840421 14.643977,12.495202 C14.6351491,12.4967843 14.6262795,12.4982834 14.6174516,12.4998658 C14.556947,12.5107341 14.4964007,12.5212277 14.4357296,12.5313048 C14.4254026,12.5330954 14.4150756,12.5346778 14.4047486,12.5363851 C14.3454932,12.5460874 14.2861962,12.5556233 14.2268159,12.5646594 C14.2147816,12.5664916 14.2027473,12.5681989 14.1906714,12.5700311 C14.1329151,12.5786508 14.0750756,12.587104 14.0171111,12.5950991 C14.0032029,12.5970146 13.9892532,12.5988051 13.975345,12.600679 C13.9191711,12.6082993 13.8629555,12.6157115 13.8066567,12.6227072 C13.7906665,12.6246643 13.7746347,12.6264965 13.7586445,12.6284536 C13.7042611,12.6349913 13.6499194,12.6414873 13.5954111,12.647442 C13.5771307,12.6494824 13.5587669,12.651273 13.5404865,12.6532301 C13.4881435,12.65881 13.4358006,12.664265 13.3833328,12.6693036 C13.3625538,12.671344 13.3417333,12.673093 13.3209543,12.6750085 C13.2708184,12.6796306 13.2206408,12.6842111 13.1703799,12.6883336 C13.1468943,12.6902908 13.1233254,12.6919148 13.0997982,12.693747 C13.052119,12.697453 13.0044816,12.7012007 12.9567608,12.7044487 C12.9297773,12.7063226 12.9027106,12.7078217 12.8756855,12.7095706 C12.8311711,12.7123606 12.78674,12.7152754 12.7421423,12.7177323 C12.7114111,12.7194396 12.6805967,12.7206888 12.6498239,12.7221879 C12.6087657,12.7242283 12.5677492,12.726352 12.5266494,12.7280593 C12.4909212,12.7295167 12.4551515,12.7305161 12.4193818,12.7317653 C12.383029,12.7330146 12.3467179,12.7344304 12.3103236,12.7354298 C12.2666004,12.7366374 12.2228355,12.7373036 12.1790707,12.7381364 C12.1503799,12.7386778 12.1216892,12.7395106 12.0929568,12.7398854 C12.020293,12.7408848 11.9475875,12.7413844 11.8747571,12.7413844 C11.8035508,12.7413844 11.7324693,12.7408848 11.6614295,12.739927 C11.6334883,12.7395939 11.6056304,12.7388027 11.5777308,12.738303 C11.5347988,12.7374702 11.4918251,12.7368456 11.4489764,12.7356796 C11.4142476,12.7347219 11.3796438,12.733431 11.3449984,12.732265 C11.3091454,12.7310574 11.2732507,12.7299748 11.2374393,12.7286006 C11.198255,12.7270182 11.1591123,12.7250195 11.1199696,12.7231456 C11.0889886,12.7216465 11.0580076,12.7203973 11.0270682,12.7187317 C10.9842611,12.7163998 10.9414957,12.7137347 10.8987302,12.711028 C10.8717051,12.709404 10.8446383,12.7078633 10.8176549,12.7060727 C10.7718912,12.7029913 10.7262109,12.6995351 10.6804889,12.6960789 C10.6567118,12.6942467 10.6328931,12.692581 10.609116,12.6907072 C10.5608539,12.6867929 10.5126751,12.6825039 10.4644963,12.6781732 C10.4435091,12.6762993 10.4224387,12.6745088 10.4014516,12.6725933 C10.350691,12.6677629 10.3000137,12.6625994 10.2493781,12.6573526 C10.2312642,12.6554788 10.2131086,12.6536882 10.1949947,12.6517727 C10.1419439,12.6460679 10.089018,12.6399466 10.0360505,12.6337004 C10.0204767,12.6318682 10.0048196,12.6301193 9.98924581,12.6282038 C9.93411292,12.6214996 9.87902168,12.6144622 9.82401372,12.607175 C9.81085511,12.6054677 9.79769651,12.6037604 9.78453791,12.6019699 C9.72765609,12.5943495 9.67081592,12.5862712 9.61405903,12.5779846 C9.60281592,12.5763189 9.59153117,12.5747366 9.58028806,12.5730709 C9.52165732,12.5643679 9.4631515,12.5552485 9.40468732,12.5459209 C9.39556791,12.5443802 9.3864485,12.543006 9.37737073,12.5415486 C9.3170327,12.5317212 9.2568196,12.5215608 9.19664813,12.5110672 C9.18948585,12.5097764 9.18228194,12.5085271 9.17511966,12.5073195 C9.11319927,12.4964096 9.0514038,12.4851248 8.98969161,12.4734653 C8.98440318,12.4724659 8.97911476,12.4714249 8.97382633,12.4704671 C8.91040686,12.4583912 8.84711231,12.4459405 8.7838594,12.433115 C8.78036154,12.4324071 8.77690533,12.4316576 8.77340747,12.4309497 C8.70865548,12.4177494 8.64402841,12.4041328 8.57948463,12.3900997 C8.57748585,12.3896833 8.57548708,12.3892252 8.5734883,12.3888088 C8.507612,12.3744426 8.44186062,12.3597017 8.37619253,12.3444194 C8.37560955,12.3442944 8.37498494,12.3441695 8.37440196,12.3440029 C7.3008098,12.0948639 6.25553362,11.7293379 5.24586062,11.248341 C5.14583858,11.2006618 5.03973693,11.1780091 4.93492615,11.1780091 C4.67695922,11.1780091 4.4266959,11.3152167 4.29290288,11.5546116 L2.97262854,13.9171224 C2.87293962,14.0954714 2.85174427,14.3009288 2.91283184,14.4958927 C2.97275346,14.6871505 3.10396473,14.8411395 3.28235542,14.9308762" id="Fill-3" fill="#597EF7"></path>
                <path d="M5.96605266,10.1998876 C6.83706062,10.5998508 7.73630129,10.9074124 8.65811145,11.1214479 L8.66123454,11.1221558 C8.72111451,11.1360223 8.78107777,11.149514 8.84112431,11.1625893 C8.84341457,11.163089 8.8456632,11.1635887 8.84795346,11.1640884 C8.90670912,11.1768723 8.96554807,11.1892813 9.0244703,11.2013156 C9.02838457,11.2020235 9.0322572,11.2028563 9.03612982,11.2036475 C9.09355297,11.215307 9.1510594,11.2265918 9.20869075,11.2375851 C9.21418739,11.2385844 9.21968402,11.2396255 9.22522229,11.2406665 C9.28135456,11.251285 9.33761176,11.2615287 9.39391059,11.271481 C9.40094795,11.2727302 9.4079853,11.2739378 9.41498102,11.2751454 C9.4699057,11.2847645 9.52487201,11.2940088 9.57992162,11.30292 C9.58854133,11.3043358 9.59720269,11.30571 9.60586405,11.3070841 C9.65928965,11.3156622 9.71279853,11.3239488 9.76634905,11.3319439 C9.77709247,11.3334846 9.78779424,11.3350254 9.79849602,11.3365661 C9.85017269,11.3441448 9.90193264,11.351432 9.95373423,11.3584277 C9.96639314,11.360135 9.97913533,11.361759 9.99183588,11.3634663 C10.0418885,11.3700872 10.0919829,11.3764999 10.1421188,11.3825379 C10.1568181,11.3843285 10.1715175,11.3859941 10.1862168,11.3877014 C10.2344789,11.3934062 10.2827826,11.3989862 10.331128,11.4041913 C10.3480343,11.4060235 10.3650239,11.4076475 10.3819718,11.4094381 C10.4283184,11.4142268 10.474665,11.4189323 10.5210949,11.4233462 C10.5403748,11.4251368 10.5596963,11.4267608 10.5789761,11.4284681 C10.6232407,11.4324656 10.6675468,11.4364216 10.7118947,11.4399611 C10.7337979,11.44171 10.7557844,11.4432507 10.7777293,11.4449164 C10.8195787,11.4481227 10.8613864,11.4512874 10.9032774,11.4540774 C10.9283454,11.4557847 10.9534966,11.4571588 10.9786062,11.4586996 C11.0177073,11.4611148 11.0568083,11.4636132 11.095951,11.4656953 C11.1240588,11.467236 11.1522498,11.468402 11.1803993,11.4697345 C11.2166687,11.4714834 11.2529798,11.4733156 11.2893325,11.4747731 C11.3217293,11.4760639 11.3542511,11.4770217 11.3867312,11.4780627 C11.4190031,11.479187 11.451275,11.4804363 11.4835885,11.4812691 C11.5226895,11.4823101 11.5619155,11.4829347 11.6011415,11.4836843 C11.6270006,11.484184 11.6528598,11.4848502 11.6787606,11.485225 C11.7440122,11.4860994 11.8093472,11.4865159 11.8747655,11.4865159 C11.9416828,11.4865159 12.0085168,11.4860578 12.0752676,11.4851417 C12.1013766,11.4848086 12.127444,11.484059 12.1535113,11.4835593 C12.1939865,11.4828098 12.2345034,11.4821435 12.2749369,11.4811025 C12.3083748,11.4801448 12.3416877,11.4788122 12.3750839,11.4776879 C12.4079804,11.476522 12.4408769,11.4756475 12.4737318,11.4742734 C12.5115003,11.472691 12.5491855,11.4707755 12.5869124,11.4689017 C12.6151868,11.4674859 12.6434611,11.4663199 12.6717355,11.4647792 C12.7126687,11.4625306 12.7535603,11.4598655 12.7944103,11.4572838 C12.8192701,11.4557014 12.8441298,11.4543273 12.8689063,11.45262 C12.9125879,11.4496634 12.9561445,11.4462072 12.9997428,11.4428759 C13.0216044,11.4411686 13.043466,11.4395863 13.065286,11.4378374 C13.1115077,11.434048 13.1576461,11.4298006 13.2037844,11.4255532 C13.2227728,11.4238043 13.2417612,11.4222219 13.2607495,11.4203897 C13.3092198,11.4156843 13.3576485,11.4106457 13.4060355,11.4054405 C13.4225254,11.4037333 13.4390153,11.4021092 13.4554636,11.4003187 C13.5056828,11.3947804 13.5557771,11.3888674 13.6058298,11.3827461 C13.6204458,11.3810388 13.6351035,11.3793315 13.6497195,11.377541 C13.7016044,11.3711282 13.7533644,11.3642991 13.8051243,11.3573034 C13.8177416,11.3555961 13.8303588,11.3539721 13.8429761,11.3522231 C13.8961102,11.3448527 13.9492027,11.3371491 14.0022535,11.3291539 C14.013455,11.3275299 14.0246981,11.3259059 14.0358579,11.3241987 C14.0903246,11.3159121 14.1446663,11.3072507 14.1989663,11.2983395 C14.2085438,11.2967155 14.2181629,11.2952581 14.2277404,11.293634 C14.2833313,11.2843897 14.3388389,11.274729 14.394305,11.2648184 C14.4025499,11.2633193 14.4108365,11.2619035 14.4191231,11.2604044 C14.4755052,11.2502023 14.5318457,11.2396255 14.5881029,11.2287155 C14.5953901,11.2273413 14.6026773,11.2259672 14.6100061,11.2245097 C14.6671794,11.2133499 14.7243111,11.2018153 14.7813178,11.1899059 C14.787564,11.1886151 14.7937685,11.1874075 14.7999731,11.1861166 C14.8576877,11.173999 14.915319,11.1615067 14.9728671,11.1486812 C14.9784887,11.1473903 14.9841102,11.1461827 14.9897734,11.1449335 C15.0477795,11.1319415 15.1057024,11.118533 15.1635419,11.1047498 C15.1686638,11.1035422 15.1737857,11.1023762 15.1789075,11.1011686 C15.2370802,11.0872605 15.295128,11.0729776 15.3531341,11.0583199 C15.3579645,11.0571123 15.3627532,11.0559047 15.3675419,11.0546555 C15.4256314,11.0399562 15.4836375,11.0248404 15.5415187,11.0093499 C15.5463074,11.008059 15.5511378,11.0067682 15.5559265,11.0055189 C15.6137661,10.9900284 15.6714391,10.9740799 15.7290704,10.9577982 C15.7339424,10.956424 15.7388561,10.9550498 15.7437697,10.9536757 C15.8011513,10.937394 15.8585328,10.9207375 15.9157893,10.903623 C15.9208696,10.9021239 15.9260331,10.9006249 15.9311133,10.8990841 C15.9878702,10.8821362 16.0445438,10.8647718 16.1011758,10.847116 C16.1069222,10.8452838 16.112752,10.8434516 16.1185401,10.841661 C16.1743393,10.8240884 16.2300551,10.8062244 16.2856461,10.7879855 L16.3056754,10.7814062 C16.3603503,10.763334 16.4149835,10.7450119 16.4694917,10.7262734 C16.4771121,10.72365 16.484774,10.7210266 16.4923527,10.7183615 C16.545695,10.6999978 16.5989541,10.6812593 16.6520882,10.6621876 C16.6612076,10.6588563 16.670327,10.6555667 16.6794048,10.6522354 C16.7310398,10.6336218 16.7825083,10.6147584 16.8338934,10.5954785 C16.8447618,10.5913977 16.8556301,10.5872752 16.8664985,10.5831944 C16.9159265,10.5645391 16.9653129,10.545634 17.0145744,10.5263958 C17.0278579,10.5212323 17.0410582,10.5159439 17.0543001,10.5107388 C17.1010214,10.4923334 17.1476595,10.4737614 17.194256,10.4548563 C17.2104127,10.448277 17.2266111,10.4416145 17.2427679,10.4349519 C17.2863246,10.4170878 17.3297979,10.3990572 17.3732713,10.3807351 C17.3927593,10.3725318 17.4122058,10.3641203 17.4316938,10.355792 C17.4716693,10.3387192 17.5116865,10.3215214 17.5515787,10.3040737 C17.5748561,10.29383 17.5981751,10.2834197 17.6214109,10.2730927 C17.6573056,10.2571442 17.6931586,10.2411123 17.7289284,10.2249139 C17.7571194,10.2120884 17.7852272,10.1990131 17.813335,10.1860211 C17.8439829,10.1718214 17.8746307,10.1577051 17.905237,10.1433389 C17.9149394,10.1387167 17.9246418,10.1340113 17.9343442,10.1294307 C18.1155664,10.0419427 18.2492762,9.88824519 18.3109467,9.69540502 C18.3738249,9.49890043 18.3530459,9.2915275 18.2524409,9.11138788 L16.8576705,6.61562547 C16.6706601,6.28108047 16.260703,6.14941115 15.9039216,6.30927152 C14.632992,6.87900576 13.2773644,7.16791206 11.8747655,7.16791206 C10.5113509,7.16791206 9.19074342,6.89457955 7.9496289,6.3554932 C7.85302143,6.31351892 7.75241641,6.29348953 7.65376852,6.29348953 C7.40029884,6.29348953 7.15927985,6.42545034 7.02994244,6.65689186 L5.62501164,9.17093472 C5.52432333,9.35111598 5.50412737,9.55844727 5.56812982,9.75461874 C5.63313166,9.95378836 5.77442009,10.1118998 5.96605266,10.1998876" id="Fill-5" fill="#597EF7"></path>
                <g id="编组" transform="translate(9.410900, 0.025193)">
                    <mask id="mask-4" fill="white">
                        <use xlink:href="#path-3"></use>
                    </mask>
                    <g id="Clip-8"></g>
                    <path d="M1.49237722,4.57115321 L2.13515003,5.68442939 C2.23916963,5.8646523 2.4993019,5.8646523 2.60332149,5.68442939 L3.2460943,4.57115321 C4.1155199,4.22220037 4.73135089,3.37118016 4.73135089,2.3785384 C4.73135089,1.07608647 3.67166687,0.0164440906 2.36925658,0.0164440906 C1.06676301,0.0164440906 0.00716227802,1.07608647 0.00716227802,2.3785384 C0.00716227802,3.37118016 0.622951623,4.22220037 1.49237722,4.57115321" id="Fill-7" fill="#597EF7" mask="url(#mask-4)"></path>
                </g>
                <g id="编组" transform="translate(25.526026, 5.438543)">
                    <mask id="mask-6" fill="white">
                        <use xlink:href="#path-5"></use>
                    </mask>
                    <g id="Clip-10"></g>
                    <path d="M3.99163748,1.00944813 C3.99163748,0.983880465 3.99005511,0.958687569 3.98780649,0.933744519 C3.99005511,0.908759829 3.99163748,0.883608573 3.99163748,0.857999265 C3.99163748,0.398031108 3.61878261,0.02517624 3.15881445,0.02517624 L0.853352113,0.02517624 C0.393383956,0.02517624 0.0205290876,0.398031108 0.0205290876,0.857999265 C0.0205290876,1.31796742 0.393383956,1.69082229 0.853352113,1.69082229 L2.32599143,1.69082229 L2.32599143,4.74486761 L0.853352113,4.74486761 C0.393383956,4.74486761 0.0205290876,5.11772247 0.0205290876,5.57769063 C0.0205290876,6.03765879 0.393383956,6.41051366 0.853352113,6.41051366 L2.32599143,6.41051366 L2.32599143,9.46460061 L0.853352113,9.46460061 C0.393383956,9.46460061 0.0205290876,9.83745548 0.0205290876,10.2974236 C0.0205290876,10.7573918 0.393383956,11.1302467 0.853352113,11.1302467 L2.32599143,11.1302467 L2.32599143,14.0328848 L0.875755052,14.0328848 C0.415786895,14.0328848 0.0429320269,14.4057396 0.0429320269,14.8657078 C0.0429320269,15.3256759 0.415786895,15.6985308 0.875755052,15.6985308 L3.18121739,15.6985308 C3.64118555,15.6985308 4.01404042,15.3256759 4.01404042,14.8657078 C4.01404042,14.8005394 4.00579547,14.7374114 3.99163748,14.676532 L3.99163748,1.00944813 Z" id="Fill-9" fill="#597EF7" mask="url(#mask-6)"></path>
                </g>
            </g>
        </g>
    </g>
</svg>