<?xml version="1.0" encoding="UTF-8"?>
<svg width="44px" height="44px" viewBox="0 0 44 44" version="1.1" xmlns="http://www.w3.org/2000/svg" xmlns:xlink="http://www.w3.org/1999/xlink">
    <title>浸液</title>
    <g id="浸液" stroke="none" stroke-width="1" fill="none" fill-rule="evenodd">
        <g transform="translate(7.500000, 8.615385)" fill="#597EF7" fill-rule="nonzero">
            <g>
                <path d="M29.521045,4.34804064 L26.9085631,0.110159652 L26.9085631,0.110159652 C26.8724406,0.0523588593 26.8090888,0.017244769 26.7409289,0.017244769 C26.672769,0.017244769 26.6094172,0.0523588593 26.5732946,0.110159652 L23.9608128,4.34716981 C23.3403052,5.34978588 23.3403052,6.61712268 23.9608128,7.61973875 C24.8860668,9.12017417 26.8780842,9.60391872 28.4155298,8.7 C29.9529753,7.79608128 30.4471698,5.84804064 29.521045,4.34804064 Z" id="路径"></path>
                <path d="M3.87997097,22.5844702 L2.21320755,19.8801161 L2.21320755,19.8801161 C2.20237095,19.8623399 2.1874424,19.8474113 2.16966618,19.8365747 C2.1103082,19.8019177 2.03412291,19.8213033 1.99854862,19.8801161 L0.331349782,22.5835994 C-0.0653912408,23.2237764 -0.0653912408,24.033408 0.331349782,24.6735849 C0.921335269,25.6314949 2.19404935,25.9393324 3.17373004,25.3628447 C4.15341074,24.786357 4.47039187,23.5419448 3.87997097,22.5844702 Z" id="路径"></path>
                <path d="M7.404209,6.69274311 L5.73701016,3.98838897 L5.73701016,3.98838897 C5.7261871,3.971174 5.71121581,3.95695128 5.6934688,3.94702467 C5.63463591,3.91222334 5.55879188,3.93055714 5.52235123,3.98838897 L3.85515239,6.69230769 C3.45861615,7.33254294 3.45861615,8.14205793 3.85515239,8.78229318 C4.44557329,9.74020319 5.71828737,10.0484761 6.69796807,9.47155298 C7.16634883,9.20242189 7.50576932,8.75507611 7.63883124,8.2315242 C7.77189316,7.70797229 7.68725217,7.15285031 7.404209,6.69274311 L7.404209,6.69274311 Z" id="路径"></path>
                <path d="M22.8753266,13.6641509 L15.6687954,1.97373004 L15.6687954,1.97677794 C15.6229091,1.90250969 15.5595221,1.84061764 15.48418,1.79651669 C15.2293613,1.64610961 14.9011071,1.72604917 14.7439768,1.97677794 L7.53744557,13.6641509 C5.82537444,16.4302419 5.82537444,19.9267973 7.53744557,22.6928882 C10.0889695,26.8319303 15.592598,28.1660377 19.8261248,25.6724238 C24.0596517,23.1788099 25.4281567,17.803193 22.8753266,13.6641509 Z M16.0667634,20.8267054 C15.8475486,21.0559685 15.5444751,21.1861516 15.2272758,21.1873092 C14.9100766,21.1884514 14.6060671,21.0604689 14.3851959,20.8328012 C14.1581627,20.6087657 14.0323581,20.3018027 14.036865,19.9828737 C14.0360556,19.6675006 14.1605614,19.3647229 14.3829923,19.1411488 C14.6054232,18.9175748 14.9075586,18.7915185 15.2229318,18.7907112 C15.539899,18.7871108 15.8446317,18.9129035 16.0667634,19.1390421 C16.296831,19.3564555 16.4253646,19.6602622 16.4211901,19.9767779 C16.4238421,20.2965553 16.2958215,20.603553 16.0667634,20.8267054 Z M16.4703919,10.8792453 L16.1656023,16.7137881 C16.1640755,16.9661867 16.0629931,17.2077829 15.8843251,17.3860668 C15.5245071,17.7401837 14.9488249,17.7455747 14.5824383,17.3982583 C14.4082729,17.2272859 14.3123367,16.9991292 14.2946299,16.7137881 L13.9767779,10.8792453 C13.9605225,10.5692308 14.0808418,10.2838897 14.3377358,10.0232221 C14.5946299,9.76255443 14.8901306,9.63193033 15.224238,9.63134978 C15.5580552,9.63134978 15.8535559,9.75979681 16.1107402,10.0166909 C16.3679245,10.2735849 16.4878084,10.561103 16.4703919,10.8792453 Z" id="形状"></path>
            </g>
        </g>
    </g>
</svg>