<?xml version="1.0" encoding="UTF-8"?>
<svg width="44px" height="44px" viewBox="0 0 44 44" version="1.1" xmlns="http://www.w3.org/2000/svg" xmlns:xlink="http://www.w3.org/1999/xlink">
    <title>液位</title>
    <g id="液位" stroke="none" stroke-width="1" fill="none" fill-rule="evenodd">
        <g transform="translate(8.500000, 9.884615)" fill="#597EF7" fill-rule="nonzero">
            <g>
                <path d="M19.9670659,6.56730539 C19.1728293,5.82035928 17.936003,5.9011976 17.2347305,6.80133234 C16.9577308,7.15621941 16.5393413,7.3721656 16.0896022,7.3923751 C15.6398631,7.4125846 15.2037913,7.23503452 14.8960778,6.90642216 L14.5727246,6.56366766 C13.7930389,5.73224551 12.504476,5.77023952 11.7716766,6.68290419 C11.1136527,7.50139222 9.99525449,7.56565868 9.26568862,6.81022455 L8.68041916,6.20393713 C7.94681138,5.44365269 6.78071856,5.43597305 6.03902695,6.18534431 L5.57784431,6.65258982 C4.83857784,7.39872754 3.67814371,7.46784431 2.94534431,6.7164521 L2.43646707,6.1954491 C1.76389222,5.50832335 0.738862275,5.4480988 0.00606287425,6.00871257 L0.00606287425,21.0616168 L0.0133383234,21.0616168 C0.212200599,22.6783832 4.60131737,23.9717964 9.98636228,23.9717964 C15.3714072,23.9717964 19.760524,22.6783832 19.9597904,21.0616168 L19.9670659,21.0616168 L19.9670659,6.56730539 Z M11.4677246,18.0499889 L8.50540419,18.0499889 C8.31945455,18.0499889 8.16871224,17.8992431 8.16871224,17.7132934 L8.16871224,12.354521 C8.16860506,12.2892043 8.1945044,12.2265319 8.24069031,12.180346 C8.28687622,12.1341601 8.34954861,12.1082607 8.41486527,12.1083683 L9.18767964,12.1083683 L9.18767964,7.16752994 L10.8044461,7.16752994 L10.8044461,12.1083683 L11.5598802,12.1083683 C11.6958266,12.1083683 11.8060329,12.2185746 11.8060329,12.354521 L11.8060329,17.7132934 C11.8060329,17.8028704 11.7703394,17.8887552 11.7068473,17.9519438 C11.6433553,18.0151324 11.5573005,18.0504152 11.4677246,18.0499889 L11.4677246,18.0499889 Z" id="形状"></path>
                <path d="M26.1588772,8.16467066 L23.9208683,8.16467066 C23.4744105,8.16467066 23.112485,7.80274516 23.112485,7.35628743 C23.112485,6.90982969 23.4744105,6.54790419 23.9208683,6.54790419 L26.1588772,6.54790419 C26.605335,6.54790419 26.9672605,6.90982969 26.9672605,7.35628743 C26.9672605,7.80274516 26.605335,8.16467066 26.1588772,8.16467066 L26.1588772,8.16467066 Z" id="路径"></path>
                <path d="M26.1588772,17.3272904 L23.9208683,17.3272904 C23.4744105,17.3272904 23.112485,16.9653649 23.112485,16.5189072 C23.112485,16.0724495 23.4744105,15.710524 23.9208683,15.710524 L26.1588772,15.710524 C26.605335,15.710524 26.9672605,16.0724495 26.9672605,16.5189072 C26.9672605,16.9653649 26.605335,17.3272904 26.1588772,17.3272904 L26.1588772,17.3272904 Z" id="路径"></path>
                <path d="M26.1807036,21.7612725 L23.9426946,21.7612725 C23.4962369,21.7612725 23.1343114,21.399347 23.1343114,20.9528892 C23.1343114,20.5064315 23.4962369,20.144506 23.9426946,20.144506 L26.1807036,20.144506 C26.6271613,20.144506 26.9890868,20.5064315 26.9890868,20.9528892 C26.9890868,21.399347 26.6271613,21.7612725 26.1807036,21.7612725 L26.1807036,21.7612725 Z" id="路径"></path>
                <path d="M26.1588772,12.7457784 L23.9208683,12.7457784 C23.4744105,12.7457784 23.112485,12.3838529 23.112485,11.9373952 C23.112485,11.4909375 23.4744105,11.129012 23.9208683,11.129012 L26.1588772,11.129012 C26.605335,11.129012 26.9672605,11.4909375 26.9672605,11.9373952 C26.9672605,12.3838529 26.605335,12.7457784 26.1588772,12.7457784 L26.1588772,12.7457784 Z" id="路径"></path>
                <path d="M26.1588772,21.7612725 C25.7124195,21.7612725 25.350494,21.399347 25.350494,20.9528892 L25.350494,7.50341317 C25.350494,7.05695544 25.7124195,6.69502994 26.1588772,6.69502994 C26.605335,6.69502994 26.9672605,7.05695544 26.9672605,7.50341317 L26.9672605,20.9528892 C26.9672605,21.399347 26.605335,21.7612725 26.1588772,21.7612725 L26.1588772,21.7612725 Z" id="路径"></path>
                <path d="M9.98636228,0.0238473054 C10.4317039,0.0238473054 10.7927246,0.384867993 10.7927246,0.830209581 L10.7927246,7.35790419 L10.7927246,7.35790419 L9.18,7.35790419 L9.18,0.830209581 C9.18,0.384867993 9.54102069,0.0238473054 9.98636228,0.0238473054 Z" id="矩形"></path>
            </g>
        </g>
    </g>
</svg>