<?xml version="1.0" encoding="UTF-8"?>
<svg width="44px" height="44px" viewBox="0 0 44 44" version="1.1" xmlns="http://www.w3.org/2000/svg" xmlns:xlink="http://www.w3.org/1999/xlink">
    <title>NH3</title>
    <g id="NH3" stroke="none" stroke-width="1" fill="none" fill-rule="evenodd">
        <g transform="translate(6.500000, 9.480769)" fill="#597EF7" fill-rule="nonzero">
            <g>
                <path d="M3.05756681,16.8846979 C3.06437485,16.5947258 3.29925227,16.4496136 3.76219905,16.4493615 C4.23195387,16.4493615 4.46683128,16.5944736 4.46683128,16.8846979 L4.46683128,24.5948042 C4.45977109,24.8850285 4.22489368,25.0300145 3.76219905,25.0297627 C3.28538403,25.0297627 3.00209389,24.8847763 2.91232861,24.5948042 L1.4406571,20.4721572 L1.4406571,24.5948042 C1.43384906,24.8850285 1.19897165,25.0300145 0.736024866,25.0297627 C0.266270044,25.0297627 0.031392633,24.8847763 0.031392633,24.5948042 L0.031392633,16.8846979 C0.0382006739,16.5947258 0.273078085,16.4496136 0.736024866,16.4493615 C1.19216361,16.4493615 1.47545375,16.5944736 1.58589531,16.8846979 L3.05756681,21.0292819 L3.05756681,16.8846979 Z" id="路径"></path>
                <path d="M8.40452649,16.8846979 C8.40452649,16.5947258 8.63259586,16.4496136 9.0887346,16.4493612 C9.54487334,16.4491093 9.77281664,16.5942215 9.7725647,16.8846979 L9.7725647,24.5948042 C9.7725647,24.8850285 9.54462119,25.0300145 9.0887346,25.0297627 C8.63284801,25.0295102 8.40477864,24.8845242 8.40452649,24.5948042 L8.40452649,21.7138682 L6.70516384,21.7138682 L6.70516384,24.5948042 C6.70516384,24.8850285 6.47722054,25.0300145 6.02133395,25.0297627 C5.56544736,25.0295102 5.33737799,24.8845242 5.33712584,24.5948042 L5.33712584,16.8846979 C5.33712584,16.5947258 5.56519521,16.4496136 6.02133395,16.4493612 C6.47747269,16.4491093 6.70541599,16.5942215 6.70516384,16.8846979 L6.70516384,20.3046038 L8.40452649,20.3046038 L8.40452649,16.8846979 Z" id="路径"></path>
                <path d="M12.4666576,21.2373054 C12.2316541,21.2304973 12.0590576,21.1717465 11.9488682,21.0610528 C11.8243063,20.9364908 11.7620253,20.7599861 11.7620253,20.5315385 C11.7688334,20.3046038 11.8379224,20.128099 11.9692924,20.0020242 C12.0938543,19.8847746 12.2596427,19.8260237 12.4666576,19.8257716 C12.6877928,19.8328317 12.8950598,19.7193644 13.0884586,19.4853695 C13.3095939,19.243558 13.4201615,18.9326574 13.4201615,18.5526679 C13.4201615,18.3043005 13.3476685,18.1247699 13.2026824,18.0140762 C13.0591704,17.9153741 12.8896864,17.8612919 12.7155293,17.858626 C12.4046287,17.858626 12.1870236,18.0140762 12.0627138,18.3249768 C11.9870689,18.5519115 11.8736016,18.7004276 11.7223118,18.7705252 C11.4176231,18.9027242 11.0620341,18.8089013 10.8622293,18.5435905 C10.7722118,18.439957 10.7307332,18.3012747 10.7377934,18.1275436 C10.7377934,17.7614223 10.8829055,17.4125732 11.1731298,17.0809964 C11.5735435,16.6596543 12.0881809,16.4488572 12.7170422,16.448605 C13.3804479,16.448605 13.9089536,16.6558721 14.3025593,17.0704061 C14.6555688,17.4297194 14.8320736,17.9236806 14.8320736,18.5522897 C14.8252655,19.326137 14.6215286,19.9341959 14.2208628,20.3764664 C14.3437963,20.4574701 14.4578886,20.5511526 14.5612648,20.6559743 C14.9826069,21.0846287 15.1932779,21.6822234 15.1932779,22.4487584 C15.1932779,23.2304224 14.9618046,23.8625616 14.4988578,24.345176 C14.0497792,24.8013148 13.5005973,25.0292581 12.8513119,25.0290061 C12.1117569,25.0290061 11.5318127,24.7768563 11.1114792,24.2725569 C10.7302289,23.7745614 10.5394777,23.256772 10.5392255,22.7191889 C10.5324175,22.4980537 10.5738961,22.3321392 10.6636614,22.2214455 C10.7466186,22.111004 10.8813926,22.0315768 11.0679834,21.9831641 C11.2487968,21.9521044 11.434807,21.9812017 11.5974977,22.0659952 C11.7354235,22.1416401 11.8251888,22.2936864 11.8667935,22.522134 C11.9772351,22.9850808 12.1189432,23.2890472 12.2919178,23.4340332 C12.4524372,23.556706 12.6492927,23.6223245 12.8513119,23.6204979 C13.1060714,23.6179809 13.344581,23.494938 13.4942935,23.288795 C13.6841102,23.0504333 13.7864984,22.7542151 13.7843917,22.4495149 C13.7775837,22.0491012 13.6566779,21.7417308 13.4216744,21.5274036 C13.1649861,21.3340048 12.8466471,21.2373054 12.4666576,21.2373054 Z" id="路径"></path>
                <path d="M19.9952161,0.0132378573 C21.7190909,0.0132378573 23.3181323,0.912381979 24.2135539,2.38546189 L24.3308035,2.38546189 C27.7469271,2.38546189 30.5261356,5.16465547 30.5261356,8.58077911 C30.528266,9.55548013 30.2979906,10.5166467 29.854394,11.3845573 C29.4788316,12.1196126 28.9615794,12.7731191 28.3324187,13.3074506 C28.3373356,13.3868778 28.3396049,13.4666831 28.3396049,13.545732 C28.3403564,14.8654317 27.6916027,16.1009779 26.6048096,16.8496358 C25.536407,17.585625 24.1792054,17.7583835 22.9623146,17.3165432 C22.4871871,18.1747948 21.7193152,18.8266138 20.813242,19.1628795 C20.3540627,19.3431365 19.8582142,19.4391895 19.348074,19.4381007 C17.2602139,19.4349476 15.5460833,17.8385483 15.3563358,15.7995488 C15.2241389,14.6260526 15.6080224,13.4293988 16.4477661,12.5439361 C17.5675835,11.3631512 19.2829457,10.9625676 20.8099117,11.5252568 C21.1137387,11.637325 21.26919,11.9744747 21.1571218,12.2783018 C21.0450536,12.5821288 20.7079039,12.7375801 20.4040768,12.6255119 C18.9024299,12.0718154 17.2362426,12.8402634 16.6825183,14.3419 C16.5741519,14.6357771 16.5164239,14.9359572 16.5049199,15.2328682 C16.5278664,15.2943732 16.5393789,15.3602981 16.5393789,15.4289118 C16.5388112,15.8831772 16.6468312,16.315383 16.8405586,16.6987104 C17.1617376,17.3087684 17.7011467,17.8062043 18.3988371,18.0634905 C18.7103517,18.1783672 19.0289497,18.2363443 19.3432297,18.2426793 C20.547794,18.2463465 21.6433086,17.4734692 22.0236341,16.2965588 C22.0799109,16.1230001 22.212074,15.9844604 22.3827903,15.9200738 C22.5535067,15.8556873 22.7442408,15.8724447 22.9011149,15.9656124 C23.7697039,16.4795386 24.8471945,16.4881575 25.7238936,15.9881919 C26.6005927,15.4882263 27.1418135,14.5564857 27.141768,13.5472449 C27.1415825,13.408006 27.1313438,13.2689622 27.1111318,13.131198 C27.0786847,12.9139796 27.1674639,12.6963836 27.3426052,12.5638613 C28.5962676,11.6235558 29.3316842,10.1459909 29.3260144,8.57888799 C29.3260144,5.82503544 27.0857907,3.58632466 24.3334511,3.58632466 C24.1984249,3.58632466 24.0599948,3.59199802 23.9219428,3.60334476 C23.6782246,3.62291803 23.4469169,3.49298504 23.3368295,3.27466767 C22.5591776,1.72919421 20.8221013,0.919887643 19.1386007,1.31870625 C17.4551,1.71752486 16.2657066,3.2201074 16.2640315,4.95020218 L16.2592807,6.1596788 C16.7243656,6.07012731 17.1659814,5.87636226 17.5496165,5.5897798 C17.7204166,5.46005826 17.9474479,5.43131134 18.1451901,5.51436773 C18.3429322,5.59742412 18.4813435,5.77966557 18.5082856,5.9924435 C18.5352277,6.20522143 18.4466076,6.4162098 18.2758076,6.54593133 C17.5273612,7.10700055 16.6185001,7.41221303 15.6836785,7.41694897 C15.6750465,7.41792485 15.6662253,7.41811706 15.6573594,7.41811701 L15.6554683,7.41811701 L15.6408443,7.41623786 L4.65216128,7.41699369 C4.32065663,7.41699369 4.05191901,7.14824472 4.05191901,6.81674007 C4.05191901,6.48523541 4.32065663,6.21649779 4.65216128,6.21649779 L15.0548443,6.21623786 L15.0593865,4.94717639 C15.0593865,2.22774227 17.2735127,0.0132378573 19.9952161,0.0132378573 Z M14.0597391,13.138006 C14.3912438,13.138006 14.6599814,13.4067437 14.6599814,13.7382483 C14.6599814,14.069753 14.3912438,14.3384906 14.0597391,14.3384906 L4.57008657,14.3384906 C4.23858191,14.3384906 3.96984429,14.069753 3.96984429,13.7382483 C3.96984429,13.4067437 4.23858191,13.138006 4.57008657,13.138006 L14.0597391,13.138006 Z M15.9047182,10.6598792 C16.2362229,10.6598792 16.5049605,10.9286168 16.5049605,11.2601214 C16.5049605,11.5916261 16.2362229,11.8603637 15.9047182,11.8603637 L12.967805,11.8603637 C12.6363004,11.8603637 12.3675627,11.5916261 12.3675627,11.2601214 C12.3675627,10.9286168 12.6363004,10.6598792 12.967805,10.6598792 L15.9047182,10.6598792 Z M9.03956542,10.6598792 C9.37107007,10.6598792 9.63980769,10.9286168 9.63980769,11.2601214 C9.63980769,11.5916261 9.37107007,11.8603637 9.03956542,11.8603637 L7.42341215,11.8603637 C7.0919075,11.8603637 6.82316988,11.5916261 6.82316988,11.2601214 C6.82316988,10.9286168 7.0919075,10.6598792 7.42341215,10.6598792 L9.03956542,10.6598792 Z M12.9125842,8.44424007 C13.2440889,8.44424007 13.5128265,8.71297768 13.5128265,9.04448234 C13.5128265,9.37598699 13.2440889,9.64472461 12.9125842,9.64472461 L9.65191088,9.64472461 C9.32040622,9.64472461 9.0516686,9.37598699 9.0516686,9.04448234 C9.0516686,8.71297768 9.32040622,8.44424007 9.65191088,8.44424007 L12.9125842,8.44424007 Z" id="形状结合"></path>
            </g>
        </g>
    </g>
</svg>