<?xml version="1.0" encoding="UTF-8"?>
<svg width="44px" height="44px" viewBox="0 0 44 44" version="1.1" xmlns="http://www.w3.org/2000/svg" xmlns:xlink="http://www.w3.org/1999/xlink">
    <title>H2S</title>
    <g id="H2S" stroke="none" stroke-width="1" fill="none" fill-rule="evenodd">
        <g transform="translate(6.500000, 9.480769)" fill="#597EF7" fill-rule="nonzero">
            <g>
                <path d="M20.1404543,0.0132378573 C21.8639249,0.0135413948 23.4624458,0.912727319 24.3576574,2.38546189 L24.474907,2.38546189 C27.8910307,2.38546189 30.6702908,5.16465547 30.6702908,8.58077911 C30.6734518,9.55524982 30.4442088,10.5164368 30.0015234,11.3845573 C29.6263952,12.1195724 29.1093697,12.7729888 28.4803044,13.3070724 C28.4852214,13.3864995 28.4874907,13.4663049 28.4874907,13.5453538 C28.4882421,14.8650535 27.8394884,16.1005997 26.7526953,16.8492575 C25.6659023,17.5979154 24.2802823,17.7637858 23.0474878,17.2928021 C22.3561148,18.6142168 20.9869313,19.4411798 19.4955816,19.4381086 C17.2821024,19.4355925 15.4880536,17.6423896 15.4845108,15.4289118 C15.4926869,15.1031719 15.7590997,14.8433623 16.0849422,14.8433623 C16.4107847,14.8433623 16.6771974,15.1031719 16.6853736,15.4289118 C16.6836441,16.8127459 17.6896114,17.991867 19.0564467,18.2081098 C20.4232821,18.4243526 21.7441015,17.6133452 22.1696287,16.2965588 C22.2259321,16.1231132 22.3580298,15.984668 22.528644,15.9202922 C22.6992582,15.8559165 22.8898855,15.8725917 23.0467314,15.9656124 C23.9153203,16.4795386 24.992811,16.4881575 25.8695101,15.9881919 C26.7462092,15.4882263 27.2874299,14.5564857 27.2873844,13.5472449 C27.2873893,13.407999 27.2771496,13.2689413 27.2567482,13.131198 C27.2246396,12.9139372 27.3135191,12.6964507 27.4885998,12.5638613 C28.7422622,11.6235558 29.4776789,10.1459909 29.4720091,8.57888799 C29.4720091,5.82503544 27.2314072,3.58632466 24.4775546,3.58632466 C24.3425285,3.58632466 24.2040983,3.59199802 24.0660464,3.60334476 C23.8223049,3.62302371 23.5909423,3.4930598 23.4809331,3.27466767 C22.7032811,1.72919421 20.9662049,0.919887643 19.2827042,1.31870625 C17.5992035,1.71752486 16.4098101,3.2201074 16.408135,4.95020218 L16.4045778,6.16004421 C16.8702231,6.07065419 17.3123743,5.87674908 17.6963677,5.5897798 C17.8668505,5.45627792 18.0960226,5.42494635 18.2960833,5.5077889 C18.4961439,5.59063145 18.6360781,5.77480522 18.662274,5.98974923 C18.6884698,6.20469324 18.5968663,6.41708519 18.4225587,6.5455531 C17.6731456,7.10782126 16.7625884,7.41327102 15.8261835,7.41697037 C15.8181709,7.41795328 15.8100251,7.41811705 15.8018412,7.41811701 L15.7893518,7.41623786 L4.79966884,7.41699342 C4.46816418,7.41699342 4.19942656,7.14824472 4.19942656,6.81674007 C4.19942656,6.48523541 4.46816418,6.21649779 4.79966884,6.21649779 L15.2023518,6.21623786 L15.2046247,4.94717639 C15.2046247,2.22774227 17.4187509,0.0132378573 20.1404543,0.0132378573 Z M14.2068685,13.138006 C14.5383731,13.138006 14.8071107,13.4067437 14.8071107,13.7382483 C14.8071107,14.069753 14.5383731,14.3384906 14.2068685,14.3384906 L4.71759412,14.3384906 C4.38608947,14.3384906 4.11735185,14.069753 4.11735185,13.7382483 C4.11735185,13.4067437 4.38608947,13.138006 4.71759412,13.138006 L14.2068685,13.138006 Z M16.0522258,10.6598792 C16.3837304,10.6598792 16.652468,10.9286168 16.652468,11.2601214 C16.652468,11.5916261 16.3837304,11.8603637 16.0522258,11.8603637 L13.1153126,11.8603637 C12.7838079,11.8603637 12.5150703,11.5916261 12.5150703,11.2601214 C12.5150703,10.9286168 12.7838079,10.6598792 13.1153126,10.6598792 L16.0522258,10.6598792 Z M9.18556007,10.6598792 C9.51706473,10.6598792 9.78580235,10.9286168 9.78580235,11.2601214 C9.78580235,11.5916261 9.51706473,11.8603637 9.18556007,11.8603637 L7.57054148,11.8603637 C7.23903683,11.8603637 6.97029921,11.5916261 6.97029921,11.2601214 C6.97029921,10.9286168 7.23903683,10.6598792 7.57054148,10.6598792 L9.18556007,10.6598792 Z M13.0597136,8.44424007 C13.3912182,8.44424007 13.6599558,8.71297768 13.6599558,9.04448234 C13.6599558,9.37598699 13.3912182,9.64472461 13.0597136,9.64472461 L9.79941843,9.64472461 C9.46791378,9.64472461 9.19917616,9.37598699 9.19917616,9.04448234 C9.19917616,8.71297768 9.46791378,8.44424007 9.79941843,8.44424007 L13.0597136,8.44424007 Z" id="形状结合"></path>
                <path d="M19.5508023,19.4172894 C17.9233684,19.4179288 16.4518775,18.4494007 15.8088825,16.9543759 C15.1658876,15.459351 15.4749151,13.7250401 16.5947223,12.5441195 C17.7145296,11.3631988 19.4299892,10.9625363 20.957041,11.5252568 C21.260868,11.6372206 21.4164039,11.9742856 21.3044402,12.2781126 C21.1924764,12.5819397 20.8554114,12.7374756 20.5515844,12.6255119 C19.0499375,12.0718154 17.3837502,12.8402634 16.8300258,14.3419 C16.2763015,15.8435366 17.0447184,17.5097382 18.5463447,18.0634905 C20.0479709,18.6172428 21.7141869,17.8488568 22.2679671,16.3472409 C22.3381876,16.1476706 22.5104882,16.001416 22.7188145,15.9645464 C22.9271409,15.9276768 23.1391717,16.0059124 23.2736214,16.1692602 C23.4080711,16.332608 23.4440802,16.5557252 23.3678439,16.7530758 C22.7769932,18.3513386 21.2547791,19.4138115 19.5508023,19.4172894 L19.5508023,19.4172894 Z" id="路径"></path>
                <path d="M3.10144086,16.8846979 C3.10144086,16.5947258 3.32938415,16.4496136 3.78527074,16.4493612 C4.24115733,16.4491093 4.46910063,16.5942215 4.46910063,16.8846979 L4.46910063,24.5948042 C4.46910063,24.8850285 4.24115733,25.0300145 3.78527074,25.0297627 C3.32938415,25.0295102 3.10144086,24.8845242 3.10144086,24.5948042 L3.10144086,21.7138682 L1.40321287,21.7138682 L1.40321287,24.5948042 C1.40321287,24.8850285 1.17526958,25.0300145 0.719382989,25.0297627 C0.263496398,25.0295102 0.0355531025,24.8845242 0.0355531025,24.5948042 L0.0355531025,16.8846979 C0.0355531025,16.5947258 0.263496398,16.4496136 0.719382989,16.4493612 C1.17526958,16.4491093 1.40321287,16.5942215 1.40321287,16.8846979 L1.40321287,20.3046038 L3.10144086,20.3046038 L3.10144086,16.8846979 Z" id="路径"></path>
                <path d="M7.56902858,16.4493615 C8.20495003,16.4566738 8.71277946,16.6605368 9.09251685,17.0609505 C9.45863816,17.4338799 9.64169881,17.9554514 9.64169881,18.6256652 C9.63533451,19.0605552 9.53304979,19.4886788 9.34214502,19.8794794 C9.19085522,20.232489 8.71769637,20.8163415 7.92266849,21.6310371 C7.14882117,22.3768958 6.76189751,22.9294818 6.76189751,23.288795 C6.76870555,23.5101824 6.87927318,23.6207501 7.0936004,23.6204979 L9.2074971,23.6204979 C9.40795608,23.6278102 9.55306821,23.6865611 9.64283349,23.7967505 C9.73965896,23.9349285 9.78807169,24.1114333 9.78807169,24.3262648 C9.78807169,24.5474001 9.73625494,24.7239048 9.63262143,24.8557791 C9.52272324,24.9727021 9.36787945,25.0367611 9.2074971,25.0316535 L6.36703114,25.0316535 C5.6900093,25.0248455 5.35149837,24.6863345 5.35149837,24.0161207 C5.35149837,22.9384331 5.79704683,21.9609749 6.68814374,21.0837462 C7.386094,20.3928561 7.81096619,19.9299094 7.96276028,19.6949059 C8.14254299,19.4465385 8.23243435,19.0907553 8.23243435,18.6275564 C8.22512201,18.3857448 8.16637114,18.1992802 8.05618173,18.0681623 C7.94574018,17.9299843 7.7833558,17.8608953 7.56902858,17.8608953 C7.39170448,17.857236 7.22022101,17.9243323 7.09246572,18.04736 C6.97065172,18.1589427 6.90272339,18.317534 6.90600105,18.4826964 C6.90591903,18.6848572 6.83224216,18.880074 6.69873402,19.0318783 C6.5811062,19.1495062 6.41544388,19.2077527 6.20136881,19.2077527 C5.98729375,19.2077527 5.82314432,19.1457239 5.71421566,19.0212881 C5.57038049,18.8795442 5.49165254,18.6845727 5.49673658,18.4826964 C5.49673658,17.8608953 5.72808389,17.36 6.19077853,16.9800105 C6.62624099,16.6262445 7.08565768,16.4493615 7.56902858,16.4493615 Z" id="路径"></path>
                <path d="M12.8747618,23.6204979 C13.1165733,23.6204979 13.3135022,23.5480049 13.4655485,23.4030188 C13.6003542,23.2859806 13.6762755,23.1151577 13.6728155,22.936668 C13.6660074,22.3080589 13.2031867,21.6483093 12.2843534,20.9574192 C11.3307233,20.2261852 10.8574384,19.4247275 10.8644986,18.5530461 C10.8644986,17.9660417 11.0821038,17.4514043 11.5173141,17.0091337 C11.9250401,16.6362044 12.3671845,16.4496136 12.8437474,16.4493615 C13.3066942,16.4493615 13.70736,16.5634592 14.0457448,16.7916547 C14.3566454,17.0057297 14.6572078,17.3752551 14.947432,17.9002307 C15.0381878,18.0689002 15.0845247,18.2578922 15.0820799,18.4494126 C15.0589637,18.6427536 14.9482217,18.8147246 14.7817697,18.9157634 C14.5949268,19.0400732 14.404932,19.0778957 14.2117854,19.0292308 C14.0286843,18.990184 13.8745917,18.8673302 13.7957384,18.6975279 C13.6363799,18.3520828 13.4809296,18.1241396 13.3293876,18.013698 C13.1868342,17.913055 13.0167344,17.8587763 12.8422345,17.8582477 C12.6904875,17.8553196 12.5442858,17.9152787 12.4382907,18.0239101 C12.327597,18.1623402 12.2722502,18.338845 12.2722502,18.5534244 C12.2722502,19.1333686 12.6798501,19.7344934 13.49505,20.3567987 C14.5523135,21.1442621 15.0808192,22.0043446 15.080567,22.9370462 C15.073759,23.531363 14.8700221,24.0287282 14.4693563,24.4291419 C14.0686904,24.8295555 13.5366547,25.0298884 12.8732489,25.0301406 C12.465064,25.0296848 12.0670108,24.9029894 11.7336585,24.6674233 C11.3602248,24.432672 11.0354561,23.9801894 10.7593522,23.3099756 C10.6799324,23.1005638 10.6355895,22.8794884 10.6281083,22.6556472 C10.6281083,22.4967929 10.7109395,22.3413427 10.8766018,22.1892964 C11.047928,22.0679883 11.2633126,22.0266212 11.4673884,22.0758291 C11.6691082,22.151474 11.8038822,22.2757838 11.8717104,22.4487584 C12.0719173,22.9601179 12.248422,23.2879125 12.4012247,23.4321421 C12.5512538,23.5579648 12.7090995,23.6207501 12.8747618,23.6204979 Z" id="路径"></path>
            </g>
        </g>
    </g>
</svg>