<?xml version="1.0" encoding="UTF-8"?>
<svg width="44px" height="44px" viewBox="0 0 44 44" version="1.1" xmlns="http://www.w3.org/2000/svg" xmlns:xlink="http://www.w3.org/1999/xlink">
    <title>瞬时流量</title>
    <defs>
        <polygon id="path-1" points="0 0.0134529649 29.4518157 0.0134529649 29.4518157 15.1569653 0 15.1569653"></polygon>
    </defs>
    <g id="瞬时流量" stroke="none" stroke-width="1" fill="none" fill-rule="evenodd">
        <g id="编组备份" transform="translate(7.000000, 11.000000)">
            <path d="M1.57567323,2.78437132 C3.83807104,2.0976725 6.28746607,2.46011527 8.29042961,3.7763432 C9.67916817,4.68818918 11.2777498,5.26809026 12.906866,5.44739863 C14.5397715,5.62674379 16.2184054,5.41307472 17.7597805,4.82169555 L19.8886719,4.00527959 C20.5219903,3.76486511 20.8348418,3.05907292 20.5945009,2.42954382 C20.3541232,1.79626226 19.648331,1.48341073 19.0188019,1.72375164 L16.8898737,2.54020438 C15.7071889,2.99421436 14.4252849,3.15829218 13.1777048,3.02095978 C11.9263354,2.88359058 10.7016379,2.43719588 9.62957693,1.73519294 C7.01617765,0.0183355134 3.8228405,-0.450868215 0.86605502,0.445673643 C0.339534418,0.605888653 1.10366252e-05,1.09043329 1.10366252e-05,1.61312786 C1.10366252e-05,1.7314037 0.0190676095,1.84967953 0.0534283028,1.96795536 C0.248004006,2.61654104 0.930913587,2.97894702 1.57567323,2.78437132" id="Fill-1" fill="#597EF7"></path>
            <g id="编组" transform="translate(0.000000, 5.289671)">
                <mask id="mask-2" fill="white">
                    <use xlink:href="#path-1"></use>
                </mask>
                <g id="Clip-4"></g>
                <path d="M24.8775392,9.25531761 L21.9441882,9.25531761 C21.609153,9.25531761 21.3375417,8.98370626 21.3375417,8.6487079 L21.3375417,3.62443141 C21.3375417,3.28943304 21.609153,3.0178217 21.9441882,3.0178217 C22.2791866,3.0178217 22.5507979,3.28943304 22.5507979,3.62443141 L22.5507979,8.0420614 L24.8775392,8.0420614 C25.2125376,8.0420614 25.484149,8.31367274 25.484149,8.6487079 C25.484149,8.98370626 25.2125376,9.25531761 24.8775392,9.25531761 M22.0940656,0.441468689 C20.0990484,0.441468689 18.289888,1.23584819 16.9644997,2.52507317 L16.8898921,2.55369482 C15.7071705,3.00770479 14.4253033,3.17174583 13.1777232,3.03437664 C11.9263538,2.89704423 10.7016563,2.45064953 9.62955853,1.74868337 C7.01615925,0.0318259483 3.82285889,-0.437451357 0.866036625,0.459127289 C0.339552812,0.619379088 -7.35775016e-06,1.10392372 -7.35775016e-06,1.62658151 C-7.35775016e-06,1.74489413 0.0190860039,1.86313318 0.0534466972,1.98140901 C0.2480224,2.62999469 0.930895193,2.99243746 1.57569163,2.79786176 C3.83808944,2.11112614 6.28748447,2.47356892 8.29044801,3.78983363 C9.67918656,4.70164282 11.2777314,5.2815439 12.9068476,5.46085227 C13.6389438,5.54127248 14.3802003,5.54241293 15.1142095,5.46622343 C14.8692699,6.19934966 14.7363154,6.98372261 14.7363154,7.79921885 C14.7363154,7.98496526 14.7433421,8.16905616 14.7568803,8.35134442 C14.2310219,8.39902265 13.7013743,8.39515983 13.1777232,8.33754864 C11.9263538,8.20017945 10.7016563,7.75382153 9.62955853,7.05181859 C7.01615925,5.33499796 3.82285889,4.86572065 0.866036625,5.76226251 C0.339552812,5.92247752 -7.35775016e-06,6.40702216 -7.35775016e-06,6.92971673 C-7.35775016e-06,7.04799256 0.0190860039,7.16626839 0.0534466972,7.28454423 C0.2480224,7.93312991 0.930895193,8.29557268 1.57569163,8.10099698 C3.83808944,7.41426136 6.28748447,7.77670414 8.29044801,9.09293206 C9.67918656,10.004778 11.2777314,10.5846791 12.9068476,10.7640243 C13.7171566,10.8529795 14.538723,10.8450699 15.3491792,10.7423925 C16.4846272,13.3408555 19.0770569,15.156969 22.0940656,15.156969 C26.1576406,15.156969 29.4518157,11.8627939 29.4518157,7.79921885 C29.4518157,3.7356438 26.1576406,0.441468689 22.0940656,0.441468689" id="Fill-3" fill="#597EF7" mask="url(#mask-2)"></path>
            </g>
        </g>
    </g>
</svg>