<?xml version="1.0" encoding="UTF-8"?>
<svg width="44px" height="44px" viewBox="0 0 44 44" version="1.1" xmlns="http://www.w3.org/2000/svg" xmlns:xlink="http://www.w3.org/1999/xlink">
    <title>累计流量</title>
    <defs>
        <polygon id="path-1" points="7.35775016e-06 0.0144195473 29.3652959 0.0144195473 29.3652959 15.1569653 7.35775016e-06 15.1569653"></polygon>
    </defs>
    <g id="累计流量" stroke="none" stroke-width="1" fill="none" fill-rule="evenodd">
        <g id="编组备份" transform="translate(7.000000, 11.000000)">
            <path d="M1.57548561,2.78406597 C3.8376259,2.09740394 6.28672662,2.45984671 8.28943264,3.7758907 C9.67798725,4.68762631 11.2763849,5.26745381 12.9052804,5.44676218 C14.538002,5.62603376 16.2164887,5.41240149 17.7576063,4.82113268 L19.886277,4.0047903 C20.519485,3.7644494 20.8322997,3.05873079 20.5919956,2.42927526 C20.3516547,1.79606728 19.6458993,1.48325253 19.0164805,1.72355665 L16.8878834,2.53989904 C15.7052722,2.99387222 14.4235522,3.15791326 13.1761192,3.02058085 C11.9248602,2.88324845 10.7003466,2.43689053 9.62839601,1.73499796 C7.01529104,0.0183612655 3.82235857,-0.450842462 0.865940974,0.445662606 C0.33949395,0.605840827 7.35775016e-06,1.09031189 7.35775016e-06,1.61293288 C7.35775016e-06,1.73120871 0.0190639307,1.84944776 0.0533878352,1.96772359 C0.247963538,2.61623569 0.930799542,2.97860489 1.57548561,2.78406597" id="Fill-1" fill="#597EF7"></path>
            <path d="M13.1761192,13.625571 C11.9248602,13.4882386 10.7003466,13.0419175 9.62839601,12.3399881 C7.01529104,10.6233515 3.82235857,10.1541477 0.865940974,11.050616 C0.33949395,11.2107942 7.35775016e-06,11.6953021 7.35775016e-06,12.2178863 C7.35775016e-06,12.3361621 0.0190639307,12.4544379 0.0533878352,12.5727138 C0.247963538,13.2211891 0.930799542,13.5835951 1.57548561,13.3890194 C3.8376259,12.7023941 6.28668983,13.0648001 8.28943264,14.3808809 C9.67798725,15.2925797 11.2763849,15.872444 12.9052804,16.0517156 C13.6886601,16.1377645 14.4825613,16.1330555 15.2667503,16.0398696 C14.941317,15.2979509 14.7343435,14.4922772 14.6708094,13.6464303 C14.1727265,13.6863093 13.6717372,13.680092 13.1761192,13.625571" id="Fill-3" fill="#597EF7"></path>
            <g id="编组" transform="translate(0.000000, 5.288089)">
                <mask id="mask-2" fill="white">
                    <use xlink:href="#path-1"></use>
                </mask>
                <g id="Clip-6"></g>
                <path d="M25.3072098,4.40123324 L24.7420978,4.40123324 C24.7377199,4.86856074 24.6161331,5.30785522 24.40526,5.69115721 C24.3255755,5.83595773 24.2331622,5.97273831 24.1295283,6.10006418 C24.0704088,6.17268517 24.0079047,6.24247343 23.9417953,6.30865639 C23.7763563,6.47413219 23.5895062,6.61790263 23.3862116,6.7367303 L22.0075899,7.79922621 L20.6287843,6.7367303 C20.4256736,6.61790263 20.2387868,6.47416898 20.0733478,6.30876676 C20.0072016,6.24254701 19.9446607,6.17268517 19.8855044,6.10002739 C19.7819441,5.97270152 19.6894572,5.83595773 19.6098095,5.69115721 C19.3989364,5.30785522 19.2773864,4.86856074 19.2730085,4.40123324 L18.8900376,4.40123324 L18.7078597,4.40123324 C18.5994801,4.40123324 18.5115917,4.31334491 18.5115917,4.20496526 C18.5115917,4.0965856 18.5994801,4.00869727 18.7078597,4.00869727 L19.9119187,4.00869727 L25.3072098,4.00869727 C25.4155894,4.00869727 25.5034778,4.0965856 25.5034778,4.20496526 C25.5034778,4.31334491 25.4155894,4.40123324 25.3072098,4.40123324 M25.3072098,11.5897184 L18.7078597,11.5897184 C18.5994801,11.5897184 18.5115917,11.5018668 18.5115917,11.3934504 C18.5115917,11.2850707 18.5994801,11.1971824 18.7078597,11.1971824 L19.2730085,11.1971824 C19.2773864,10.7298549 19.3989364,10.2905972 19.6098095,9.90729521 C19.689494,9.7624579 19.7819441,9.62571411 19.8855412,9.49838824 C19.9446607,9.42573046 20.0072016,9.35597899 20.0732742,9.28979603 C20.23875,9.12435701 20.4256001,8.98058658 20.6288579,8.86164854 L22.0075164,7.79922621 L23.3862852,8.86164854 C23.5894326,8.98054979 23.7763195,9.12428344 23.9417217,9.28968566 C24.0079047,9.35590541 24.0704088,9.42573046 24.1295651,9.49842503 C24.2331622,9.6257509 24.3256123,9.7624579 24.40526,9.90729521 C24.6161331,10.2905972 24.7377199,10.7298549 24.7420978,11.1971824 L25.3072098,11.1971824 C25.4155894,11.1971824 25.5034778,11.2850707 25.5034778,11.3934504 C25.5034778,11.5018668 25.4155894,11.5897184 25.3072098,11.5897184 M16.8240549,2.57772523 C15.6592127,3.01334083 14.4012214,3.16984017 13.1761192,3.03497261 C11.9248602,2.89764021 10.7003466,2.45131908 9.62839601,1.7494265 C7.01529104,0.0327898136 3.82235857,-0.436413914 0.865940974,0.460017577 C0.33949395,0.620269375 7.35775016e-06,1.10474043 7.35775016e-06,1.62736143 C7.35775016e-06,1.74560047 0.0190639307,1.86383952 0.0533878352,1.98211535 C0.247963538,2.63062745 0.930799542,2.99303344 1.57548561,2.79849452 C3.8376259,2.11183249 6.28668983,2.47420168 8.28943264,3.79031924 C9.67798725,4.70201807 11.2763849,5.28184557 12.9052804,5.46115394 C13.6081295,5.53833674 14.3194768,5.54249387 15.0247171,5.47528082 C14.7817274,6.20583183 14.649803,6.98707775 14.649803,7.79922621 C14.649803,7.98736388 14.65694,8.17380927 14.6708094,8.35834164 C14.7343435,9.2041886 14.941317,10.0098622 15.2667503,10.751781 C16.4043689,13.345204 18.9941498,15.1569764 22.0075531,15.1569764 C26.0711282,15.1569764 29.3653033,11.8628013 29.3653033,7.79922621 C29.3653033,3.73565116 26.0711282,0.441476046 22.0075531,0.441476046 C19.9854227,0.441476046 18.1540419,1.25737696 16.8240549,2.57772523 Z" id="Fill-5" fill="#597EF7" mask="url(#mask-2)"></path>
            </g>
            <path d="M24.0496746,16.3079198 L19.8358175,16.3079198 C19.6420144,16.3079198 19.4849264,16.150795 19.4849264,15.9570287 C19.4849264,15.7632256 19.6420144,15.6061376 19.8358175,15.6061376 L24.0496746,15.6061376 C24.2434778,15.6061376 24.4005657,15.7632256 24.4005657,15.9570287 C24.4005657,16.150795 24.2434778,16.3079198 24.0496746,16.3079198" id="Fill-7" fill="#597EF7"></path>
        </g>
    </g>
</svg>
